<?xml version="1.0" encoding="UTF-8" standalone="no"?>
<svg
   width="493"
   height="58"
   id="svg2"
   version="1.1"
   inkscape:version="1.5-dev (31d096944e, 2025-04-07, custom)"
   sodipodi:docname="banner.svg"
   inkscape:output_extension="org.inkscape.output.svg.inkscape"
   inkscape:export-filename="banner.png"
   inkscape:export-xdpi="96"
   inkscape:export-ydpi="96"
   inkscape:export-batch-path="/home/ltlnx"
   xmlns:inkscape="http://www.inkscape.org/namespaces/inkscape"
   xmlns:sodipodi="http://sodipodi.sourceforge.net/DTD/sodipodi-0.dtd"
   xmlns="http://www.w3.org/2000/svg"
   xmlns:svg="http://www.w3.org/2000/svg"
   xmlns:rdf="http://www.w3.org/1999/02/22-rdf-syntax-ns#"
   xmlns:cc="http://creativecommons.org/ns#"
   xmlns:dc="http://purl.org/dc/elements/1.1/">
  <defs
     id="defs4" />
  <sodipodi:namedview
     id="base"
     pagecolor="#ffffff"
     bordercolor="#666666"
     borderopacity="1.0"
     inkscape:pageopacity="0.0"
     inkscape:pageshadow="2"
     inkscape:zoom="2.5660874"
     inkscape:cx="331.04874"
     inkscape:cy="-25.330392"
     inkscape:document-units="px"
     inkscape:current-layer="layer1"
     showgrid="false"
     inkscape:window-width="1920"
     inkscape:window-height="1144"
     inkscape:window-x="20"
     inkscape:window-y="20"
     inkscape:window-maximized="1"
     fit-margin-top="0"
     fit-margin-left="0"
     fit-margin-right="0"
     fit-margin-bottom="0"
     inkscape:document-rotation="0"
     inkscape:snap-center="true"
     inkscape:snap-bbox="true"
     inkscape:snap-bbox-midpoints="true"
     inkscape:snap-nodes="true"
     inkscape:bbox-paths="true"
     inkscape:showpageshadow="2"
     inkscape:pagecheckerboard="0"
     inkscape:deskcolor="#d1d1d1" />
  <metadata
     id="metadata7">
    <rdf:RDF>
      <cc:Work
         rdf:about="">
        <dc:format>image/svg+xml</dc:format>
        <dc:type
           rdf:resource="http://purl.org/dc/dcmitype/StillImage" />
        <dc:title />
      </cc:Work>
    </rdf:RDF>
  </metadata>
  <g
     inkscape:label="Layer 1"
     inkscape:groupmode="layer"
     id="layer1"
     transform="translate(0,-994.36218)">
    <rect
       style="fill:#ffffff;fill-opacity:1;stroke:none"
       id="rect2830"
       width="493"
       height="58"
       x="-0.36694327"
       y="994.3913" />
    <path
       style="font-weight:bold;font-size:17.9175px;line-height:1.5;font-family:'Linux Libertine';-inkscape-font-specification:'Linux Libertine';font-variant-ligatures:none;text-decoration-color:#000000;letter-spacing:0px;fill:#06263f;stroke-width:7.55905;stroke-linecap:round;stroke-linejoin:round"
       d="m 418.18979,1042.6832 q 0,0.5337 0.13123,0.8661 0.13123,0.3325 0.43744,0.49 0.3062,0.1487 0.55117,0.1924 0.25371,0.044 0.72615,0.061 0.13998,0.087 0.13998,0.3149 0,0.2275 -0.13998,0.2975 -2.93959,-0.035 -2.99208,-0.035 l -3.03583,0.035 q -0.13998,-0.088 -0.13998,-0.2975 0,-0.2187 0.13998,-0.3149 0.46368,-0.018 0.7174,-0.061 0.25371,-0.044 0.55992,-0.1924 0.30621,-0.1575 0.43744,-0.4812 0.13123,-0.3325 0.13123,-0.8749 v -5.608 q 0,-0.6299 -0.07,-0.7961 -0.07,-0.1662 -0.27121,-0.1662 -0.80489,0 -1.86349,0.4461 -0.3762,-0.2712 -0.39369,-0.7698 0.51617,-0.2188 1.88098,-0.7524 1.36481,-0.5425 1.99472,-0.8312 0.55118,-0.2712 0.89238,-0.2624 0.30621,0 0.30621,0.3062 -0.13998,1.0236 -0.13998,1.9684 z m 3.49951,1.1461 q 0,-0.5162 0.39369,-0.8924 0.3937,-0.3762 0.92737,-0.3762 0.54243,0 0.91862,0.3587 0.3762,0.3587 0.3762,0.8749 0,0.4987 -0.39369,0.8749 -0.3937,0.3762 -0.93612,0.3762 -0.53368,0 -0.90988,-0.3587 -0.37619,-0.3587 -0.37619,-0.8574 z m 8.17136,-7.9352 q -0.87488,1.1986 -3.29829,5.2318 h 3.29829 z m 3.97194,5.2318 q 0.27121,0 0.27121,0.2887 0,0.1575 -0.17497,0.3587 -0.16623,0.1925 -0.3412,0.1925 h -1.51354 v 0.7174 q 0,0.5337 0.10498,0.8661 0.11374,0.3325 0.36745,0.49 0.26247,0.1487 0.49868,0.1924 0.23622,0.044 0.6999,0.061 0.13999,0.087 0.13999,0.3149 0,0.2275 -0.13999,0.2975 -0.57741,0 -1.17233,-0.01 -0.58617,-0.01 -0.92737,-0.017 -0.3412,-0.01 -0.65616,-0.01 l -2.79961,0.035 q -0.13998,-0.088 -0.13998,-0.2975 0,-0.2187 0.13998,-0.3149 0.46369,-0.018 0.6999,-0.061 0.23622,-0.044 0.48993,-0.1924 0.26247,-0.1575 0.36745,-0.4812 0.11374,-0.3325 0.11374,-0.8749 v -0.7174 h -3.17581 q -0.46369,0 -0.59492,-0.1225 l -0.26246,-0.3237 q -0.035,-0.07 -0.11373,-0.1662 -0.07,-0.105 -0.10499,-0.1575 -0.035,-0.053 -0.035,-0.087 0,-0.053 0.12248,-0.2362 0.3587,-0.5512 1.14609,-1.741 0.79614,-1.1986 1.30357,-1.9772 0.50743,-0.7787 1.17234,-1.706 0.6649,-0.9362 1.14609,-1.5048 h 1.60977 v 7.1827 z m 1.42605,2.7034 q 0,-0.5162 0.3937,-0.8924 0.39369,-0.3762 0.92737,-0.3762 0.54242,0 0.91862,0.3587 0.3762,0.3587 0.3762,0.8749 0,0.4987 -0.3937,0.8749 -0.39369,0.3762 -0.93612,0.3762 -0.53367,0 -0.90987,-0.3587 -0.3762,-0.3587 -0.3762,-0.8574 z m 4.38314,-7.0953 q 0,-0.9886 1.02361,-1.8897 1.02361,-0.9011 2.78211,-0.9011 1.64477,0 2.65088,0.9536 0.76989,0.7349 0.76989,1.9247 0,0.3237 -0.0437,0.5949 -0.0437,0.2712 -0.0962,0.4725 -0.0437,0.1924 -0.22746,0.4549 -0.17498,0.2537 -0.25372,0.3937 -0.0787,0.1312 -0.40244,0.4549 -0.32371,0.3237 -0.47244,0.455 -0.13998,0.1312 -0.62991,0.5861 -0.48993,0.4462 -0.72615,0.6562 l -1.04985,0.9711 q -0.74365,0.6824 -0.83114,1.5923 h 2.32718 q 0.61241,0 1.02361,-0.3937 0.41119,-0.3937 0.6999,-1.3036 0.41119,0 0.80489,0.175 -0.23622,1.9335 -0.55118,2.9396 h -6.92028 l -0.07,-0.5774 q 0.035,-0.3937 0.52493,-0.9974 0.49868,-0.6124 2.05596,-2.0997 l 1.52229,-1.4523 q 0.6649,-0.6299 0.83988,-1.2336 0.18372,-0.6124 0.18372,-1.6272 0,-0.9799 -0.47243,-1.5836 -0.48993,-0.6299 -1.0761,-0.6211 -0.59492,0 -1.0411,0.4374 -0.44619,0.4374 -0.44619,0.7961 0,0.2188 0.11373,0.4637 0.0875,0.2712 0.0875,0.3762 0,0.4112 -0.31495,0.6824 -0.31496,0.2712 -0.72615,0.2712 -0.46369,0 -0.76115,-0.3062 -0.29746,-0.3062 -0.29746,-0.6649 z"
       id="text1"
       aria-label="1.4.2" />
    <path
       style="font-variation-settings:normal;vector-effect:none;fill:#06263f;fill-opacity:1;stroke-width:7.63495;stroke-linecap:round;stroke-linejoin:round;stroke-miterlimit:4;stroke-dasharray:none;stroke-dashoffset:0;stroke-opacity:1;-inkscape-stroke:none;stop-color:#000000"
       d="m 462.54969,1041.8418 -0.21765,-0.032 -0.19945,-0.055 -0.19943,-0.055 -0.1847,-0.089 -0.1847,-0.089 -0.16865,-0.1649 -0.16866,-0.1652 -0.0689,-0.1407 -0.0689,-0.1409 -0.0658,-0.2878 -0.0658,-0.2878 -0.0581,-0.1671 -0.0581,-0.1672 -0.0745,-0.1559 -0.0745,-0.1559 -0.11353,-0.1676 -0.1135,-0.1673 -0.15713,-0.1536 -0.15711,-0.1535 -0.15153,-0.1 -0.15152,-0.1 -0.15366,-0.076 -0.15368,-0.076 -0.19501,-0.068 -0.195,-0.068 -0.25502,-0.063 -0.25504,-0.063 -0.49393,-0.09 -0.49394,-0.089 -0.2305,-0.053 -0.23051,-0.053 -0.17562,-0.057 -0.17562,-0.058 -0.14232,-0.063 -0.1423,-0.063 -0.17913,-0.1176 -0.17912,-0.1176 -0.11561,-0.1248 -0.11562,-0.1246 -0.0606,-0.1264 -0.0606,-0.1262 -0.0147,-0.1053 -0.0147,-0.1053 0.0256,-0.126 0.0256,-0.1261 0.075,-0.1516 0.075,-0.1517 0.14199,-0.1866 0.14199,-0.1867 0.39042,-0.4052 0.39042,-0.4052 0.18914,-0.2175 0.18912,-0.2174 0.0872,-0.1439 0.0872,-0.1439 0.0464,-0.1227 0.0465,-0.1227 0.0143,-0.1064 0.0143,-0.1064 -0.0359,-0.1385 -0.036,-0.1387 -0.067,-0.1032 -0.0671,-0.1031 -0.13531,-0.1236 -0.13529,-0.1237 -0.18343,-0.1181 -0.18341,-0.1179 -0.28857,-0.1449 -0.28857,-0.1449 -0.32615,-0.1353 -0.32615,-0.1355 -0.40927,-0.1526 -0.40926,-0.1527 -1.99771,-0.6555 -1.99771,-0.6553 -0.48296,-0.179 -0.48296,-0.179 -0.35126,-0.15 -0.35124,-0.15 -0.25245,-0.1306 -0.25247,-0.1306 -0.18648,-0.1223 -0.18649,-0.1222 -0.13447,-0.1327 -0.13447,-0.1327 -0.038,-0.1128 -0.038,-0.1128 0.015,-0.08 0.015,-0.08 0.0574,-0.1042 0.0574,-0.1042 0.13278,-0.1213 0.13275,-0.1214 0.17562,-0.1129 0.17564,-0.1126 0.24336,-0.132 0.24336,-0.132 0.81411,-0.3778 0.81412,-0.3777 0.24872,-0.1352 0.24871,-0.1351 0.18353,-0.12 0.18352,-0.12 0.13103,-0.1274 0.13104,-0.1272 0.0529,-0.1122 0.0529,-0.1123 2.2e-4,-0.082 2.2e-4,-0.082 -0.0335,-0.079 -0.0335,-0.079 -0.0532,-0.07 -0.0532,-0.07 -0.237,-0.102 -0.23702,-0.1021 -0.25996,-0.096 -0.25995,-0.095 -0.39863,-0.1192 -0.39862,-0.1194 -0.70249,-0.171 -0.70249,-0.1711 -0.81647,-0.1866 -0.81647,-0.1866 -0.40428,-0.1064 -0.40428,-0.1064 -0.32693,-0.1 -0.32691,-0.1 -0.31833,-0.1202 -0.31832,-0.12 -0.26695,-0.129 -0.26697,-0.1289 -0.23146,-0.1487 -0.23146,-0.1487 -0.19031,-0.1802 -0.19031,-0.1801 -0.0955,-0.1319 -0.0955,-0.132 -0.0767,-0.1606 -0.0768,-0.1605 -0.0357,-0.13 -0.0357,-0.13 -0.0113,-0.2707 -0.0113,-0.2708 0.0362,-0.2057 0.0363,-0.2058 0.0911,-0.2709 0.0911,-0.2708 0.18214,-0.3599 0.18215,-0.3598 0.28413,-0.4201 0.28411,-0.4201 0.18853,-0.2383 0.18853,-0.2382 7.65436,-7.7302 7.65436,-7.73 0.19926,-0.1582 0.19928,-0.1581 0.18709,-0.1204 0.1871,-0.1204 0.21472,-0.1089 0.21471,-0.1088 0.22346,-0.086 0.22346,-0.086 0.19753,-0.056 0.19752,-0.057 0.29638,-0.056 0.29636,-0.056 0.48493,-0.011 0.48495,-0.011 0.2944,0.037 0.2944,0.037 0.33341,0.083 0.33341,0.084 0.25526,0.099 0.25526,0.098 0.23768,0.1201 0.23765,0.1199 0.22744,0.1493 0.22743,0.1494 0.17399,0.137 0.17401,0.137 7.87891,7.9462 7.87884,7.9463 0.25373,0.2643 0.25371,0.2644 0.18574,0.2275 0.18573,0.2275 0.16529,0.2458 0.16529,0.2459 0.12753,0.249 0.12752,0.249 0.0786,0.2417 0.0786,0.2418 0.0326,0.2167 0.0326,0.2165 2.3e-4,0.123 2.2e-4,0.123 -0.0236,0.1671 -0.0235,0.167 -0.0541,0.1841 -0.0541,0.1841 -0.0999,0.1965 -0.0999,0.1966 -0.10924,0.1558 -0.10925,0.156 -0.16883,0.1822 -0.16883,0.1821 -0.16464,0.147 -0.16466,0.147 -0.24148,0.1787 -0.24147,0.1788 -0.24148,0.1508 -0.24148,0.1507 -0.20314,0.1127 -0.20315,0.1127 -0.37499,0.1852 -0.37502,0.1853 -0.32193,0.1412 -0.32191,0.1412 -0.51589,0.2025 -0.51589,0.2023 -0.52687,0.1885 -0.52687,0.1883 -1.99771,0.655 -1.9977,0.6552 -0.47975,0.1775 -0.47975,0.1774 -0.31056,0.1309 -0.31054,0.1312 -0.31739,0.1549 -0.31739,0.155 -0.0852,0.084 -0.0852,0.084 -0.0415,0.09 -0.0415,0.09 -3.7e-4,0.1204 -3.7e-4,0.1203 0.0564,0.1117 0.0563,0.1116 0.12474,0.1263 0.12474,0.1263 0.15367,0.1125 0.15368,0.1125 0.32929,0.1925 0.3293,0.1923 0.55979,0.3025 0.5598,0.3026 0.20767,0.127 0.20768,0.1271 0.21249,0.1579 0.2125,0.158 0.14538,0.155 0.14537,0.1549 0.0789,0.1576 0.079,0.1577 0.0112,0.1377 0.0112,0.1378 -0.0787,0.2319 -0.0787,0.2319 -0.11046,0.2181 -0.11047,0.2181 -0.0798,0.1236 -0.0798,0.1236 -0.14766,0.1737 -0.14767,0.1737 -0.15139,0.1216 -0.15139,0.1216 -0.13055,0.082 -0.13056,0.082 -0.19874,0.092 -0.19873,0.092 -0.26477,0.087 -0.26479,0.087 -0.45966,0.1098 -0.45967,0.11 -0.4171,0.1 -0.4171,0.1 -0.37321,0.1189 -0.37319,0.1189 -0.32527,0.1375 -0.32527,0.1375 -0.2455,0.1326 -0.24551,0.1326 -0.30733,0.2023 -0.30735,0.2022 -0.15357,0.1221 -0.15356,0.1221 -0.21073,0.1823 -0.21075,0.1825 -0.1653,0.1706 -0.16532,0.1709 -0.0601,0.1009 -0.0601,0.101 -0.0207,0.091 -0.0208,0.091 0.0263,0.092 0.0262,0.092 0.0857,0.097 0.0856,0.097 0.13638,0.089 0.13638,0.089 0.41174,0.2041 0.41172,0.204 0.1292,0.086 0.1292,0.086 0.0766,0.088 0.0766,0.088 0.0268,0.095 0.0268,0.094 -0.016,0.072 -0.016,0.073 -0.0502,0.097 -0.0503,0.098 -0.0786,0.09 -0.0786,0.09 -0.22527,0.1505 -0.22528,0.1507 -0.24463,0.1425 -0.24462,0.1427 -0.29323,0.1517 -0.29324,0.1519 -0.30735,0.1341 -0.30735,0.1342 -0.30477,0.1173 -0.30478,0.1175 -0.29641,0.099 -0.29641,0.097 -0.35379,0.098 -0.35381,0.097 -0.3732,0.074 -0.3732,0.073 -0.27443,0.036 -0.27442,0.036 -0.46103,0.011 -0.461,0.011 -0.21767,-0.032 z m 1.21654,-12.4008 0.0988,-0.051 0.13172,-0.087 0.13172,-0.087 0.13951,-0.1312 0.1395,-0.1314 0.0544,-0.1064 0.0545,-0.1063 -0.0132,-0.071 -0.0133,-0.071 -0.038,-0.034 -0.038,-0.034 -0.057,-0.021 -0.0569,-0.021 -0.44795,-0.079 -0.44795,-0.079 -1.16351,-0.2274 -1.1635,-0.2274 -0.88909,-0.1836 -0.88908,-0.1837 -0.84519,-0.1847 -0.84519,-0.1848 -0.50768,-0.1272 -0.50769,-0.1268 -0.17285,-0.058 -0.17285,-0.058 -0.12919,0.011 -0.12917,0.011 -0.0277,0.037 -0.0277,0.037 0.0114,0.043 0.0114,0.043 0.10933,0.094 0.10934,0.094 0.22687,0.1333 0.22687,0.1334 0.40195,0.1921 0.40197,0.1919 0.49941,0.2074 0.49941,0.2073 0.47749,0.1769 0.47749,0.1767 0.4469,0.1491 0.44691,0.1492 0.31047,0.095 0.31047,0.096 0.40612,0.109 0.40613,0.1089 0.35125,0.076 0.35124,0.076 0.28538,0.043 0.28539,0.043 h 0.34028 0.34028 z m 0.38934,-15.9866 1.91508,-1.1949 h 0.0123 0.0123 l 1.23027,0.641 1.23026,0.641 0.007,-0.011 0.007,-0.011 0.28752,-1.7127 0.28751,-1.7128 v -0.015 -0.015 l 1.48568,1.1732 1.48567,1.1732 0.0508,-0.063 0.0508,-0.063 0.0465,-0.13 0.0464,-0.13 0.0112,-0.2816 0.0112,-0.2817 -0.0371,-0.1945 -0.0371,-0.1944 -0.064,-0.1631 -0.064,-0.1629 -0.0863,-0.1276 -0.0863,-0.1278 -2.93712,-2.9448 -2.93723,-2.9448 -0.2316,-0.2204 -0.23157,-0.2204 -0.19726,-0.1326 -0.19728,-0.1328 -0.20538,-0.1009 -0.20539,-0.1021 -0.22679,-0.075 -0.22679,-0.075 -0.21545,-0.048 -0.21545,-0.048 h -0.50492 -0.50493 l -0.22276,0.048 -0.22279,0.048 -0.2254,0.077 -0.2254,0.077 -0.17748,0.088 -0.17748,0.088 -0.15367,0.098 -0.15368,0.099 -0.15366,0.1248 -0.15367,0.1249 -2.14114,2.1197 -2.14115,2.1196 -0.495,0.5093 -0.49501,0.5091 -0.38281,0.4023 -0.38282,0.4023 -0.10106,0.1176 -0.10106,0.1177 -0.10301,0.1516 -0.10301,0.1515 -0.0839,0.1734 -0.084,0.1733 -0.0551,0.1733 -0.0551,0.1734 -0.0249,0.2057 -0.0249,0.2059 0.0231,0.1625 0.0231,0.1624 0.0245,0.076 0.0245,0.076 0.0624,0.1231 0.0624,0.1232 0.11004,0.1086 0.11004,0.1086 0.13736,0.064 0.13734,0.064 0.11635,0.024 0.11632,0.024 h 1.71673 1.71673 l 1.05152,-1.7983 1.05153,-1.7982 0.0153,-0.011 0.0153,-0.011 0.60934,2.4201 0.60931,2.4202 0.0445,0.1792 0.0445,0.1793 0.0686,-0.04 0.0686,-0.04 1.91508,-1.1948 z m -11.68647,23.7207 -0.15604,-0.038 -0.16227,-0.076 -0.16227,-0.076 -0.13643,-0.1021 -0.13644,-0.102 -0.13429,-0.1446 -0.13428,-0.1446 -0.0739,-0.1305 -0.0739,-0.1304 -0.0341,-0.129 -0.0341,-0.1289 2.6e-4,-0.099 2.6e-4,-0.098 0.0294,-0.1086 0.0294,-0.1085 0.0576,-0.1119 0.0576,-0.1121 0.10918,-0.1295 0.10918,-0.1293 0.18998,-0.1407 0.18998,-0.1408 0.21177,-0.1086 0.21178,-0.1085 0.21389,-0.078 0.21388,-0.078 0.22516,-0.054 0.22518,-0.054 0.2481,-0.033 0.24809,-0.032 h 0.23487 0.23486 l 0.19757,0.024 0.1976,0.024 0.18658,0.052 0.1866,0.052 0.20419,0.1009 0.20418,0.1 0.16547,0.1525 0.16548,0.1525 -0.0124,0.062 -0.0125,0.061 -0.10085,0.1986 -0.10084,0.1985 -0.1,0.153 -0.0999,0.1528 -0.13754,0.1734 -0.13754,0.1732 -0.21638,0.207 -0.2164,0.2069 -0.0988,0.077 -0.0988,0.077 -0.16463,0.1085 -0.16465,0.1085 -0.16465,0.082 -0.16465,0.082 -0.1427,0.053 -0.14268,0.053 -0.18661,0.041 -0.1866,0.041 h -0.25247 -0.25245 l -0.15604,-0.038 z m 24.49092,-0.4651 -0.12074,-0.028 -0.0878,-0.028 -0.0878,-0.028 -0.15356,-0.078 -0.15353,-0.078 -0.14501,-0.1349 -0.14501,-0.135 -0.0671,-0.125 -0.0671,-0.125 -0.0351,-0.1177 -0.0351,-0.1177 v -0.1431 -0.1432 l 0.0338,-0.1291 0.0338,-0.1291 0.0656,-0.139 0.0656,-0.1389 0.0798,-0.1102 0.0798,-0.1102 0.11618,-0.1311 0.11619,-0.1313 0.0543,-0.029 0.0542,-0.029 0.1609,0.038 0.16087,0.038 0.18659,0.064 0.18661,0.064 0.17562,0.087 0.17562,0.087 0.0988,0.066 0.0988,0.065 0.13976,0.1102 0.13976,0.1102 0.11945,0.1409 0.11946,0.1408 0.0975,0.1948 0.0975,0.195 0.0265,0.1572 0.0265,0.1572 -0.0264,0.1244 -0.0264,0.1245 -0.039,0.054 -0.039,0.054 -0.20803,0.102 -0.20801,0.102 -0.17563,0.047 -0.17563,0.047 -0.29636,0.011 -0.29636,0.011 z m 2.53555,-3.2207 -0.21952,-0.018 -0.27442,-0.035 -0.27441,-0.035 -0.27934,-0.053 -0.27936,-0.053 -0.22557,-0.066 -0.22556,-0.066 -0.15366,-0.073 -0.15368,-0.073 -0.0703,-0.068 -0.0703,-0.068 -0.0136,-0.042 -0.0136,-0.042 0.0375,-0.1132 0.0376,-0.1133 0.0768,-0.1517 0.0767,-0.1516 0.0857,-0.125 0.0858,-0.1247 0.13458,-0.1419 0.13457,-0.142 0.18823,-0.1396 0.18825,-0.1396 0.23238,-0.1168 0.23239,-0.1167 0.24667,-0.078 0.24668,-0.079 0.25636,-0.046 0.25635,-0.046 h 0.3732 0.37319 l 0.17564,0.027 0.17561,0.027 0.24784,0.064 0.24783,0.064 0.19733,0.083 0.19733,0.085 0.18971,0.1159 0.18972,0.116 0.21343,0.2058 0.21345,0.2058 0.10584,0.1625 0.10573,0.1624 0.0719,0.1625 0.0719,0.1625 -0.0137,0.076 -0.0137,0.076 -0.0389,0.076 -0.0389,0.076 -0.113,0.1042 -0.11301,0.1042 -0.17995,0.084 -0.17995,0.084 -0.21216,0.057 -0.21215,0.058 -0.29276,0.045 -0.29275,0.046 -0.7464,0.011 -0.74639,0.011 -0.21953,-0.018 z"
       id="path24070-6" />
    <path
       id="path168-5"
       style="display:inline;fill:#06263f;fill-opacity:1;stroke-width:7.63495;stroke-linecap:round;stroke-linejoin:round"
       d="m 437.77983,1005.0086 c -0.009,-5e-4 -0.0188,-3e-4 -0.0279,0 l -6.55287,1.5491 c -0.21284,0.05 -0.40999,0.153 -0.57396,0.2976 l -1.64403,1.5044 c -0.13153,0.1162 -0.16875,0.307 -0.0902,0.464 l 1.14805,2.3018 c 0.0783,0.1568 0.25187,0.2404 0.42361,0.2053 l 2.19501,-0.4006 c 0.21422,-0.044 0.41466,-0.1399 0.58299,-0.2796 l 5.18083,-4.3002 c 0.0291,-0.025 0.0371,-0.064 0.0204,-0.099 l -0.21948,-0.4415 -5.77983,2.8815 c 0.10317,0.3564 -0.015,0.705 -0.28476,0.8401 -0.31998,0.1597 -0.74052,-0.033 -0.9382,-0.428 -0.19756,-0.3964 -0.0981,-0.8467 0.22205,-1.0059 0.27058,-0.1335 0.61993,-0.019 0.84214,0.2783 l 5.78052,-2.8822 -0.21951,-0.4402 c -0.0129,-0.025 -0.0375,-0.042 -0.0645,-0.046 z m -32.50588,2.2396 c -0.77308,0.014 -1.58133,0.2381 -2.18406,0.6821 -0.67764,0.4994 -1.03825,1.0616 -1.26317,1.8001 -0.0392,-0.114 -0.13836,-0.2018 -0.26623,-0.2182 -0.15098,-0.02 -0.29067,0.068 -0.34429,0.2028 -0.1984,0.048 -0.5287,0.056 -0.9081,-0.1587 -0.5815,-0.3287 -1.35299,-0.6496 -1.67784,-0.7147 -0.84248,-0.1691 -3.03602,0.4526 -2.10856,0.4102 0.79376,-0.036 2.15179,0.085 2.32166,0.3116 -1.10404,-0.184 -1.85104,-0.1829 -2.73311,0.081 -1.19378,0.3557 -2.78684,1.6178 -2.92836,2.2973 -0.14156,0.6792 0.14098,-0.2829 2.03749,-0.5377 1.89656,-0.2546 2.60446,-0.085 3.22723,0.1421 0.62276,0.2265 2.21898,-1.0071 2.58335,-0.9483 0.0324,0 0.0611,0 0.0884,0 0.0338,0.1234 0.13753,0.22 0.27264,0.2373 0.10027,0.013 0.19536,-0.021 0.26364,-0.085 0.0129,0.508 0.1541,1.0733 0.37174,1.5095 0.19131,0.3833 0.56467,0.7669 0.71477,0.9169 0.015,-0.01 0.025,-0.013 0.0266,-0.014 0.18698,-0.1452 0.38676,-0.2962 0.50366,-0.4888 0.11904,-0.1964 0.17234,-0.4303 0.0451,-0.8064 -0.15197,-0.4482 -0.0497,-0.9071 0.26494,-1.1729 0.28105,-0.2371 0.74547,-0.2197 1.23894,-0.037 0.58509,-0.7024 0.90318,-1.1249 1.58383,-1.3995 0,0 0,0 0,0 0.49726,-0.1961 0.97884,-0.1436 1.32334,-0.1274 0.17228,0.01 0.31135,0 0.38401,-0.022 0.0726,-0.025 0.0911,-0.037 0.11067,-0.1414 0.007,-0.027 -0.0183,-0.1016 -0.0605,-0.1887 -0.55515,-0.8618 -1.5464,-1.4151 -2.36385,-1.5038 -0.17183,-0.018 -0.34833,-0.026 -0.52674,-0.023 z m 22.7207,1.8 c -0.0591,4e-4 -0.11891,0.012 -0.17596,0.038 -2.40473,1.0331 -14.6361,6.3002 -18.26936,8.105 -2.47901,1.2314 -4.93154,2.4754 -7.38348,3.7211 l 0.82744,0.501 1.88906,0.3853 c 0.009,0 0.0196,0 0.0287,0.01 0.43911,0.1263 0.73457,0.483 0.8377,0.8658 0.10317,0.3827 0.0511,0.7955 -0.119,1.1652 -0.17013,0.3698 -0.47029,0.7037 -0.89082,0.8754 -0.42045,0.1716 -0.94669,0.1634 -1.4993,-0.082 -0.007,0 -0.008,0 -0.0129,-0.01 -0.71502,-0.3495 -1.16024,-0.9561 -1.69453,-1.1639 -0.0104,0 -0.0208,-0.01 -0.0309,-0.013 l -2.18334,-1.0917 c -9.51545,4.8835 -18.8584,9.9388 -28.16271,15.4569 -0.62376,0.37 -1.41443,0.8826 -1.0168,1.683 0.39763,0.8004 1.28461,0.4802 1.95626,0.2066 13.01756,-5.3013 25.45465,-11.1353 37.9913,-17.3351 l 0.58866,-0.2988 c -0.009,0.01 -0.007,0.01 0.008,-0.043 0.0175,-0.062 0.0303,-0.1522 0.0591,-0.2638 0.0175,-0.066 0.0241,-0.1241 0.0275,-0.19 -0.009,-0.2631 -0.17925,-0.5597 -0.18112,-0.563 -0.78156,-1.0986 -0.0404,-2.5135 1.08596,-2.5085 v 0 c 0,-2e-4 0,0 0,0 0.5146,0 1.04767,0.3153 1.45325,0.9337 0.23929,0.3648 0.2651,0.8045 0.16639,1.2997 4.5456,-2.3903 13.87564,-7.6668 15.92204,-8.8282 0.21485,-0.122 0.2997,-0.4002 0.18945,-0.6221 l -0.97913,-1.9708 c -0.0827,-0.1666 -0.25677,-0.2643 -0.4351,-0.2618 z m -20.70552,0.3808 c -0.24745,0 -0.50901,0.022 -0.76667,0.1229 -0.62896,0.2543 -0.87882,0.6034 -1.49867,1.3457 -0.0478,0.057 -0.12774,0.072 -0.1939,0.039 -0.49122,-0.2357 -0.8371,-0.1717 -1.0405,0 -0.20344,0.1715 -0.28779,0.4761 -0.1703,0.8228 0.15136,0.4464 0.089,0.8089 -0.0729,1.0758 -0.14265,0.2351 -0.34458,0.3972 -0.51838,0.5317 0.0811,0.125 0.17026,0.2443 0.26753,0.357 -0.49253,0.095 -0.95674,0.2581 -1.37452,0.4877 l -6.32383,3.0471 c -1.19552,0.5634 -1.19468,2.2647 0,2.826 l 6.06523,3.0306 c 0.66677,0.2594 1.12801,0.8854 1.724,1.1767 1.92241,0.8534 2.69095,-1.7704 1.42065,-2.136 l -1.9518,-0.3974 -4.58642,-2.7746 1.10329,-0.2682 v 0 l 0.32319,-0.079 2.64605,-0.6433 c 0.64421,-0.1725 0.96935,-0.4119 1.19285,-0.67 0.0665,-0.076 0.18154,-0.084 0.2579,-0.017 0.0769,0.066 0.0856,0.1823 0.0196,0.2591 -0.26835,0.3099 -0.67709,0.5963 -1.37525,0.7833 0,3e-4 0,2e-4 -0.007,0 l -2.7952,0.6789 -0.0478,0.3257 2.25005,1.3612 c 2.26525,-1.1744 4.50193,-2.3356 6.85935,-3.5087 l -0.40441,-0.997 v 0.01 c -0.23346,-0.8636 -0.73426,-1.5192 -1.53648,-1.9708 1.19931,-0.5212 1.97587,-1.7032 1.97746,-3.0107 -0.0283,-0.6501 -0.2482,-1.2773 -0.63292,-1.8021 -0.12108,0.021 -0.2485,0.015 -0.38464,0.01 -0.13449,-0.01 -0.2778,-0.015 -0.4262,-0.016 z m 4.38609,9.4362 c -0.82191,-0.01 -1.43734,1.0353 -0.78073,1.9408 0,0 0.235,0.3591 0.24382,0.7633 -0.007,0.096 -0.0154,0.1843 -0.0408,0.2823 -0.0396,0.1535 -0.0551,0.3983 -0.19394,0.5098 l -0.83128,0.4224 c 0.73793,0.3515 1.77884,0.2569 2.29801,-0.5138 0.20927,-0.4182 0.20436,-0.4966 0.33155,-0.8267 0.30225,-0.8024 0.37149,-1.4311 0.1228,-1.8103 -0.35875,-0.547 -0.7757,-0.7651 -1.14926,-0.7678 z m -1.93965,3.6838 v 5e-4 3e-4 0 4e-4 5e-4 c 0,2e-4 0,2e-4 0,0 z m -2.79902,1.7667 c -3.18809,1.5613 -6.3763,3.1159 -9.57079,4.624 l -0.0104,0.013 -0.0423,0.015 -4.32336,3.6825 1.44364,0.083 -5.93403,7.6765 h 6.86452 l 0.0625,-0.6848 -3.39613,-0.5273 c 0,0 3.55231,-3.3743 7.28817,-6.1821 l 5.86623,0.3386 -5.2058,5.6835 h 6.62516 v -0.606 l -3.2393,-0.6085 6.04158,-4.2253 -2.85278,-7.8581 z" />
  </g>
</svg>
