<svg width="16" height="16" viewBox="0 0 16 16" fill="none" xmlns="http://www.w3.org/2000/svg">
<g id="charmap">
<g id=".device-keyboard-key">
<path id="Union" d="M10.6455 1C11.9711 1 13.1834 1.74902 13.7764 2.93457L14.6309 4.64258C14.8738 5.12844 14.9999 5.6648 15 6.20801V11.5C15 13.1569 13.6569 14.5 12 14.5H4C2.34315 14.5 1 13.1569 1 11.5V6.20801C1.00007 5.6648 1.12621 5.12844 1.36914 4.64258L2.22363 2.93457C2.81657 1.74902 4.02892 1 5.35449 1H10.6455ZM12.1924 9.83496C11.7468 10.2461 11.1541 10.5 10.5 10.5H5.5C4.84565 10.5 4.25224 10.2464 3.80664 9.83496L2.98535 13.1211L2.96289 13.208C3.26555 13.3922 3.6198 13.5 4 13.5H12C12.3799 13.5 12.7336 13.3919 13.0361 13.208L13.0146 13.1211L12.1924 9.83496ZM2.26367 5.08984C2.09017 5.43685 2.00007 5.82004 2 6.20801V11.5C2 11.7799 2.05829 12.0462 2.16211 12.2881L3.01465 8.87891L3.0791 8.61719C3.02892 8.41968 3 8.21312 3 8V3.61719L2.26367 5.08984ZM13 8C13 8.21321 12.9701 8.41961 12.9199 8.61719L12.9854 8.87891L13.8369 12.2881C13.9408 12.0461 14 11.78 14 11.5V6.20801C13.9999 5.82004 13.9098 5.43685 13.7363 5.08984L13 3.61719V8ZM5.5 2C4.67165 2 4.00013 2.67168 4 3.5V8C4 8.82843 4.67157 9.5 5.5 9.5H10.5C11.3284 9.5 12 8.82843 12 8V3.5C11.9999 2.67168 11.3283 2 10.5 2H5.5Z" fill="black"/>
</g>
</g>
</svg>
