<svg width="16" height="16" viewBox="0 0 16 16" fill="none" xmlns="http://www.w3.org/2000/svg">
<g id="color-picker">
<g id=".dropper">
<path id="neutral" opacity="0.3" fill-rule="evenodd" clip-rule="evenodd" d="M12.4978 6.49779L12.9371 6.93712C13.5239 7.52394 13.5234 8.47553 12.936 9.06175C12.3494 9.64711 11.3995 9.64662 10.8136 9.06065L6.93711 5.18419C6.35029 4.59736 6.35078 3.64577 6.93821 3.05955C7.52479 2.47419 8.47468 2.47468 9.06065 3.06065L9.49778 3.49779L11.3742 1.62132C12.2027 0.792893 13.5458 0.792893 14.3742 1.62132C15.2027 2.44975 15.2027 3.79289 14.3742 4.62132L12.4978 6.49779Z" fill="black"/>
<path id="Union" d="M11.3743 1.62109C12.2027 0.792831 13.5459 0.792831 14.3743 1.62109C15.2027 2.44948 15.2026 3.79266 14.3743 4.62109L12.4973 6.49805L12.9368 6.9375C13.5236 7.52433 13.5232 8.47531 12.9358 9.06152C12.3492 9.64686 11.3997 9.64649 10.8137 9.06055L10.2297 8.47656L5.02173 13.6855C4.52791 14.1794 3.92542 14.5515 3.26294 14.7725L2.65845 14.9746L2.36548 15.0723L0.927979 13.6348L1.02563 13.3418L1.22778 12.7373C1.44872 12.0748 1.82085 11.4724 2.3147 10.9785L7.52271 5.76953L6.93677 5.18457C6.35005 4.59783 6.35058 3.6458 6.93774 3.05957C7.52431 2.47421 8.47482 2.4746 9.06079 3.06055L9.49731 3.49805L11.3743 1.62109ZM3.02173 11.6855C2.63758 12.0697 2.34786 12.5383 2.17603 13.0537L2.07153 13.3643L2.63501 13.9277L2.94653 13.8242C3.46185 13.6524 3.93058 13.3626 4.3147 12.9785L9.52271 7.76953L8.22974 6.47656L3.02173 11.6855ZM13.6672 2.32812C13.2294 1.89039 12.5192 1.89039 12.0813 2.32812L10.2053 4.20508L9.49731 4.91211L8.79028 4.20508L8.35376 3.76758C8.15803 3.57187 7.8407 3.57206 7.64478 3.76758C7.44858 3.96339 7.44781 4.28153 7.6438 4.47754L11.5208 8.35352C11.7165 8.54922 12.0338 8.54902 12.2297 8.35352C12.4257 8.15769 12.4257 7.84047 12.2297 7.64453L11.0833 6.49805L13.6672 3.91406C14.105 3.47615 14.1051 2.76599 13.6672 2.32812Z" fill="black"/>
</g>
</g>
</svg>
