<?xml version="1.0" encoding="UTF-8" standalone="no"?>
<svg
   width="16"
   height="16"
   viewBox="0 0 16 16"
   fill="none"
   version="1.1"
   id="svg291"
   sodipodi:docname="Dash-Inkscape-Icons17.svg"
   inkscape:export-batch-name=""
   inkscape:export-batch-path="/Users/hperticarati/Desktop"
   xmlns:inkscape="http://www.inkscape.org/namespaces/inkscape"
   xmlns:sodipodi="http://sodipodi.sourceforge.net/DTD/sodipodi-0.dtd"
   xmlns="http://www.w3.org/2000/svg"
   xmlns:svg="http://www.w3.org/2000/svg">
  <style
     id="style219">.Inter { font-family: 'Inter', sans-serif; }
.bbox { fill: none; fill-opacity: 0; opacity: 0; stroke: none; }
.error {  }
.success { fill: url(#linearGradient953); }
.warning { fill: url(#linearGradient3); }
</style>
  <sodipodi:namedview
     id="namedview291"
     pagecolor="#ffffff"
     bordercolor="#000000"
     borderopacity="0.25"
     inkscape:showpageshadow="false"
     inkscape:pageopacity="0.0"
     inkscape:pagecheckerboard="false"
     inkscape:deskcolor="#000000"
     showgrid="true"
     inkscape:zoom="19.414041"
     inkscape:cx="3015.7297"
     inkscape:cy="682.36694"
     inkscape:window-width="1512"
     inkscape:window-height="882"
     inkscape:window-maximized="0"
     inkscape:current-layer="color-picker-shape-below"
     labelstyle="below"
     showguides="true"
     inkscape:clip-to-page="false">
    <inkscape:grid
       type="xygrid"
       id="grid302"
       units="px"
       originx="-2080"
       originy="-668"
       spacingx="1"
       spacingy="1"
       empcolor="#919191"
       empopacity="0.10196078"
       color="#919191"
       opacity="0.05"
       empspacing="4"
       enabled="true"
       visible="true" />
    <inkscape:grid
       type="xygrid"
       id="grid389"
       units="px"
       originx="-2079.5"
       originy="-667.5"
       spacingx="1"
       spacingy="1"
       empcolor="#c0c0c0"
       empopacity="0.17012266"
       color="#0099e5"
       opacity="0.00499998"
       empspacing="0"
       enabled="true"
       visible="false"
       dotted="true"
       snapvisiblegridlinesonly="false" />
  </sodipodi:namedview>
  <defs
     id="defs291">
    <linearGradient
       id="swatch313"
       inkscape:swatch="solid"
       inkscape:label="dark-grey"
       gradientTransform="translate(-1345.3414,267.61969)">
      <stop
         style="stop-color:#353841;stop-opacity:1;"
         offset="0"
         id="stop313" />
    </linearGradient>
    <linearGradient
       id="swatch387"
       inkscape:swatch="solid"
       inkscape:label="white"
       gradientTransform="matrix(1.2173562,0,0,1.3893574,-3317.4132,1744.6209)">
      <stop
         style="stop-color:#ffffff;stop-opacity:1;"
         offset="0"
         id="stop387" />
    </linearGradient>
    <linearGradient
       id="swatch5"
       inkscape:swatch="solid"
       inkscape:label="success"
       gradientTransform="translate(5123.2617,290.90662)">
      <stop
         style="stop-color:#04c8a5;stop-opacity:1;"
         offset="0"
         id="stop5" />
    </linearGradient>
    <linearGradient
       id="swatch6"
       inkscape:swatch="solid"
       inkscape:label="warning"
       gradientTransform="translate(5106,656.85076)">
      <stop
         style="stop-color:#0a8bff;stop-opacity:1;"
         offset="0"
         id="stop6" />
    </linearGradient>
    <linearGradient
       id="swatch7"
       inkscape:swatch="solid"
       inkscape:label="error"
       gradientTransform="matrix(0.85714286,0,0,0.85714184,4681.8571,1175.7304)">
      <stop
         style="stop-color:#f73664;stop-opacity:1;"
         offset="0"
         id="stop7" />
    </linearGradient>
    <linearGradient
       id="swatch127"
       inkscape:swatch="solid"
       inkscape:label="black"
       gradientTransform="matrix(0.01804371,0,0,0.04718476,-706.42367,5445.3248)">
      <stop
         style="stop-color:#000000;stop-opacity:1;"
         offset="0"
         id="stop128" />
    </linearGradient>
  </defs>
  <g
     inkscape:groupmode="layer"
     id="Dialos"
     inkscape:label="Icons - Dialogs"
     inkscape:highlight-color="#309184"
     style="display:inline"
     transform="translate(-2080,-668)">
    <g
       id="color-picker-shape-below"
       transform="translate(1463,-607)"
       style="display:inline"
       inkscape:label="color-picker-shape-below-symbolic">
      <rect
         id="rect5259"
         width="16"
         height="16"
         x="452"
         y="1460"
         inkscape:label="bbox"
         inkscape:tile-x0="272"
         inkscape:tile-y0="308"
         transform="translate(165,-185)"
         class="bbox " />
      <path
         id="Union_657"
         opacity="0.3"
         d="m 630.5,1288.01 c 0,0.99 -0.5,1.67 -1,2.49 h -1 c -0.5,-0.82 -1,-1.5 -1,-2.5 v -2 h 3 z m -6.5,-2.63 v 4 l -7,-4.38 3.199,-2 z"
         fill="black"
         style="display:inline" />
      <path
         id="Union_658"
         opacity="0.3"
         fill-rule="evenodd"
         clip-rule="evenodd"
         d="m 627,1277 c 0,-1.1 0.895,-2 2,-2 1.104,0 2,0.9 2,2 v 2 c 1.104,0 1.999,0.9 1.999,2 0,1.1 -0.895,2 -1.999,2 h -4 c -1.105,0 -2,-0.9 -2,-2 0,-1.1 0.895,-2 2,-2 z"
         fill="black"
         style="display:inline" />
      <path
         id="path145"
         style="display:inline;fill:url(#swatch127)"
         d="m 629,1275 c -1.105,0 -2,0.9 -2,2 v 2 c -1.105,0 -2,0.9 -2,2 0,1.1 0.895,2 2,2 v 5 c 0,1.1667 0.58544,1.9614 1.07227,2.7598 l 0.14648,0.2402 h 1.5625 l 0.14648,-0.2402 c 0.48683,-0.7984 1.07227,-1.5917 1.07227,-2.75 V 1283 c 1.104,0 1.99805,-0.9 1.99805,-2 0,-1.1 -0.89405,-2 -1.99805,-2 v -2 c 0,-1.1 -0.896,-2 -2,-2 z m 0,1 c 0.552,0 1,0.45 1,1 v 2 1 h 1 c 0.552,0 0.99805,0.45 0.99805,1 0,0.55 -0.44605,1 -0.99805,1 h -4 c -0.552,0 -1,-0.45 -1,-1 0,-0.55 0.448,-1 1,-1 h 1 v -1 -2 c 0,-0.55 0.447,-1 1,-1 z m -1,7 h 2 v 5.0098 c 0,0.7332 -0.39256,1.2866 -0.82812,1.9902 h -0.34376 C 628.39228,1289.2961 628,1288.744 628,1288 Z" />
      <path
         id="Subtract_142"
         d="m 624,1277.8 -5.114,3.2 5.114,3.2 v 1.17 l -2.753,-1.72 -2.15,1.35 4.903,3.06 v 1.32 l -7,-4.38 3.199,-2 0.419,0.26 -3.618,-2.26 7,-4.38 z"
         fill="black"
         style="display:inline"
         inkscape:label="layers"
         sodipodi:nodetypes="cccccccccccccc" />
    </g>
  </g>
  <style
     id="style219-9">
.bbox { 
    fill:none;
    fill-opacity:0;
    opacity:0;
    stroke:none;
}
.error { fill: url(#linearGradient885); }
.success { fill: url(#linearGradient953); }
.warning { fill: url(#linearGradient3); }
</style>
</svg>
