<svg width="16" height="16" viewBox="0 0 16 16" fill="none" xmlns="http://www.w3.org/2000/svg">
<g id="dialog-paint-server">
<g id=".brush-paint" clip-path="url(#clip0_3684_42528)">
<path id="neutral" opacity="0.3" d="M9.59369 0.341797C9.59369 0.341797 9.5936 2.20777 8.19421 3.60724L8 3.99976L12 7.99976L12.3926 7.80568C13.7922 6.4062 15.6581 6.4062 15.6581 6.4062L9.59369 0.341797Z" fill="black"/>
<path id="Union" d="M15.6584 6.40625C15.6584 6.40625 14.0562 6.40782 12.7073 7.52246L10.3069 10.4209C9.66002 11.2018 8.52417 11.3122 7.74146 10.7148L5.1731 14.2188C4.2937 15.4179 2.55189 15.5513 1.50024 14.5C0.44882 13.4485 0.581629 11.7067 1.78052 10.8271L5.28442 8.25684C4.68798 7.47403 4.79854 6.33886 5.57935 5.69238L8.47876 3.29004C9.59151 1.94159 9.59399 0.341797 9.59399 0.341797L15.6584 6.40625ZM6.21704 6.46289C5.85672 6.76135 5.80307 7.28725 6.07935 7.65039L6.69751 8.46094L5.87622 9.06348L2.37231 11.6338C1.66764 12.1508 1.58906 13.1747 2.20728 13.793L2.32739 13.9004C2.95122 14.3986 3.88171 14.288 4.36646 13.627L6.93481 10.124L7.53735 9.30176L8.3479 9.91992C8.71077 10.1969 9.23744 10.1437 9.53638 9.7832L11.4592 7.45898L8.53833 4.53809L6.21704 6.46289ZM3.25024 12C3.66439 12.0001 4.00024 12.3358 4.00024 12.75C4.00011 13.1641 3.66431 13.4999 3.25024 13.5C2.83611 13.5 2.50038 13.1641 2.50024 12.75C2.50024 12.3358 2.83603 12 3.25024 12ZM10.176 2.33789C9.99283 2.80915 9.72515 3.32215 9.33716 3.81738L12.1809 6.66016C12.6759 6.27238 13.1903 6.0064 13.6614 5.82324L10.176 2.33789Z" fill="black"/>
</g>
</g>
<defs>
<clipPath id="clip0_3684_42528">
<rect width="16" height="16" fill="white"/>
</clipPath>
</defs>
</svg>
