<svg width="16" height="16" viewBox="0 0 16 16" fill="none" xmlns="http://www.w3.org/2000/svg">
<g id="font_collections">
<g id=".folder-text" clip-path="url(#clip0_3684_42530)">
<path id="Rectangle 769" opacity="0.3" d="M8.5 4H13V5H9L8.5 4Z" fill="black"/>
<path id="Union" d="M16.001 16H8.00098V9H16.001V16ZM9.5498 15H10.7031L11.0811 13.8389H12.9189L13.2959 15H14.4492L12.6943 9.90918H11.3066L9.5498 15ZM8.16699 3H14V5H15V8H14V6H8.96484L6.96484 3H2V13H7.00098V14H1V2H7.5L8.16699 3ZM12.6465 12.999H11.3535L11.9805 11.0723H12.0205L12.6465 12.999ZM9.5 5H13V4H8.83301L9.5 5Z" fill="black"/>
</g>
</g>
<defs>
<clipPath id="clip0_3684_42530">
<rect width="16" height="16" fill="white"/>
</clipPath>
</defs>
</svg>
