<svg width="16" height="16" viewBox="0 0 16 16" fill="none" xmlns="http://www.w3.org/2000/svg">
<g id="snap-bounding-box-edges">
<g id=".snap-bounding-box-edges">
<path class="error" d="M2 15H1V11H2V15ZM1.5 6.5C2.32843 6.5 3 7.17157 3 8C3 8.82843 2.32843 9.5 1.5 9.5C0.671573 9.5 0 8.82843 0 8C0 7.17157 0.671573 6.5 1.5 6.5ZM2 5H1V1H2V5Z" fill="#F73664"/>
<path id="Union" opacity="0.7" d="M3 15H2V14H3V15ZM6 15H4V14H6V15ZM9 15H7V14H9V15ZM12 15H10V14H12V15ZM15 15H13V14H14V13H15V15ZM15 12H14V10H15V12ZM15 9H14V7H15V9ZM15 6H14V4H15V6ZM15 3H14V2H13V1H15V3ZM3 2H2V1H3V2ZM6 2H4V1H6V2ZM9 2H7V1H9V2ZM12 2H10V1H12V2Z" fill="black"/>
</g>
</g>
</svg>
