<svg width="16" height="16" viewBox="0 0 16 16" fill="none" xmlns="http://www.w3.org/2000/svg">
<g id="snap-nodes-smooth">
<g id=".snap-nodes-smooth">
<path id="Subtract" opacity="0.7" d="M5.50098 8C5.50098 8.34011 5.56937 8.6644 5.69238 8.95996C3.52412 9.86414 2.00005 12.0041 2 14.5V15H1V14.5C1.00005 11.514 2.87046 8.96678 5.50293 7.96094C5.50273 7.97394 5.50098 7.98695 5.50098 8ZM10.499 7.96094C13.1306 8.96723 14.9999 11.5147 15 14.5V15H14V14.5C14 12.0045 12.4762 9.8654 10.3086 8.96094C10.4319 8.66506 10.501 8.34056 10.501 8C10.501 7.98695 10.4992 7.97394 10.499 7.96094Z" fill="black"/>
<circle class="error" cx="8" cy="8" r="1.5" fill="#F73664"/>
</g>
</g>
</svg>
