<svg width="16" height="16" viewBox="0 0 16 16" fill="none" xmlns="http://www.w3.org/2000/svg">
<g id="snap-nodes-intersection">
<g id=".snap-nodes-intersection">
<path id="Subtract" opacity="0.7" d="M6.84766 10.2168C7.13917 10.3688 7.46382 10.464 7.80859 10.4902L6.52051 15H5.48145L5.52051 14.8623L6.84766 10.2168ZM15.001 7.5V8.5H10.4512C10.484 8.33846 10.501 8.17122 10.501 8C10.501 7.82878 10.484 7.66154 10.4512 7.5H15.001ZM5.55078 7.5C5.51799 7.66154 5.50098 7.82878 5.50098 8C5.50098 8.17122 5.51799 8.33846 5.55078 8.5H1.00098V7.5H5.55078ZM10.4814 1.1377L9.15332 5.78223C8.86181 5.63045 8.53708 5.5349 8.19238 5.50879L9.48145 1H10.5205L10.4814 1.1377Z" fill="black"/>
<circle class="error" cx="8" cy="8" r="1.5" fill="#F73664"/>
</g>
</g>
</svg>
