<svg width="16" height="16" viewBox="0 0 16 16" fill="none" xmlns="http://www.w3.org/2000/svg">
<g id="snap-nodes-center">
<g id=".snap-nodes-center" clip-path="url(#clip0_3684_42356)">
<g id=".bounding-box-node" opacity="0.7" clip-path="url(#clip1_3684_42356)">
<path id="Subtract" fill-rule="evenodd" clip-rule="evenodd" d="M0 2.5L2 4.5L2 11.5L0 13.5L2.5 16L4.5 14L11.5 14L13.5 16L16 13.5L14 11.5V4.5L16 2.5L13.5 0L11.5 2L4.5 2L2.5 0L0 2.5ZM4.5 3L3 4.5L3 11.5L4.5 13L11.5 13L13 11.5V4.5L11.5 3L4.5 3ZM1.41406 2.5L2.5 1.41406L3.58594 2.5L2.5 3.58594L1.41406 2.5ZM1.41406 13.5L2.5 12.4141L3.58594 13.5L2.5 14.5859L1.41406 13.5ZM13.5 1.41406L12.4141 2.5L13.5 3.58594L14.5859 2.5L13.5 1.41406ZM12.4141 13.5L13.5 12.4141L14.5859 13.5L13.5 14.5859L12.4141 13.5Z" fill="black"/>
</g>
<circle class="error" cx="8.00098" cy="8" r="1.5" fill="#F73664"/>
</g>
</g>
<defs>
<clipPath id="clip0_3684_42356">
<rect width="16" height="16" fill="white"/>
</clipPath>
<clipPath id="clip1_3684_42356">
<rect width="16" height="16" fill="white"/>
</clipPath>
</defs>
</svg>
