<svg width="16" height="16" viewBox="0 0 16 16" fill="none" xmlns="http://www.w3.org/2000/svg">
<g id="snap-alignment-self">
<g id=".snap-alignment-self">
<path id="Union" opacity="0.5" d="M2.00098 14H14.001V11H15.001V15H1.00098V11H2.00098V14ZM15.001 5H14.001V2H2.00098V5H1.00098V1H15.001V5Z" fill="black"/>
<path class="error" d="M14.5 6.5C15.3284 6.5 16 7.17157 16 8C16 8.82843 15.3284 9.5 14.5 9.5C13.8438 9.5 13.2876 9.07812 13.084 8.49121C13.0566 8.49586 13.0287 8.5 13 8.5H3C2.97095 8.5 2.94274 8.49597 2.91504 8.49121C2.71138 9.07796 2.15608 9.5 1.5 9.5C0.671573 9.5 0 8.82843 0 8C0 7.17157 0.671573 6.5 1.5 6.5C2.15575 6.5 2.71113 6.92152 2.91504 7.50781C2.94268 7.50307 2.971 7.5 3 7.5H13C13.0287 7.5 13.0566 7.50318 13.084 7.50781C13.2878 6.92136 13.8441 6.5 14.5 6.5Z" fill="#F73664"/>
</g>
</g>
</svg>
