<svg width="16" height="16" viewBox="0 0 16 16" fill="none" xmlns="http://www.w3.org/2000/svg">
<g id="snap-nodes-cusp">
<g id=".snap-nodes-cusp">
<path id="Subtract" opacity="0.7" d="M5.50098 8C5.50098 8.35361 5.57461 8.69021 5.70703 8.99512C3.57591 9.93695 2 12.1108 2 14.5V15H1V14.5C1 11.6285 2.9182 9.04533 5.50098 7.99707V8ZM8.69434 10.4004C8.94299 11.7131 9.41719 12.5149 10.041 13.0205C11.0065 13.8029 12.4617 14 14.5 14H15V15H14.5C12.4759 15 10.681 14.8251 9.41211 13.7969C8.53047 13.0824 7.96484 12.0112 7.69238 10.4785C7.79361 10.491 7.89637 10.5 8.00098 10.5C8.24178 10.5 8.47398 10.4639 8.69434 10.4004Z" fill="black"/>
<circle class="error" cx="8" cy="8" r="1.5" fill="#F73664"/>
</g>
</g>
</svg>
