<svg width="16" height="16" viewBox="0 0 16 16" fill="none" xmlns="http://www.w3.org/2000/svg">
<g id="snap">
<g id=".magnet">
<path id="Vector 848" opacity="0.2" d="M9.5 4L7 1.5L4.5 4L7 6.5L9.5 4Z" fill="black"/>
<path id="Vector 849" opacity="0.2" d="M14.5 9L12 6.5L9.5 9L12 11.5L14.5 9Z" fill="black"/>
<path id="Union" d="M10.4602 3.72754L5.92896 8.25879C5.42868 8.75926 5.42856 9.57089 5.92896 10.0713C6.42937 10.5715 7.24105 10.5715 7.74146 10.0713L12.2727 5.54004L15.4436 8.71191L10.9133 13.2422C8.66133 15.4942 5.01014 15.4941 2.75806 13.2422C0.505988 10.9901 0.505987 7.33898 2.75806 5.08691L7.28833 0.556641L10.4602 3.72754ZM3.46509 5.79395C1.60354 7.65549 1.60354 10.6736 3.46509 12.5352C5.32665 14.3965 8.34482 14.3966 10.2063 12.5352L11.51 11.2314L9.7522 9.47363L8.44849 10.7783L8.27563 10.9355C7.3797 11.666 6.05732 11.6135 5.22192 10.7783C4.38654 9.94294 4.33414 8.62061 5.0647 7.72461L5.22192 7.55176L6.52661 6.24707L4.7688 4.48926L3.46509 5.79395ZM10.3928 8.83301L12.1506 10.5908L14.0305 8.71094L12.2727 6.9541L10.3928 8.83301ZM5.40942 3.84863L7.16724 5.60645L9.04614 3.72754L7.28931 1.96973L5.40942 3.84863Z" fill="black"/>
</g>
</g>
</svg>
