<svg width="16" height="16" viewBox="0 0 16 16" fill="none" xmlns="http://www.w3.org/2000/svg">
<g id="snap-bounding-box-corners">
<g id=".snap-bounding-box-corners">
<circle class="error" cx="1.5" cy="1.5" r="1.5" fill="#F73664"/>
<path id="Union" opacity="0.7" d="M2 14H3V15H1V13H2V14ZM6 15H4V14H6V15ZM9 15H7V14H9V15ZM12 15H10V14H12V15ZM15 15H13V14H14V13H15V15ZM2 12H1V10H2V12ZM15 12H14V10H15V12ZM2 9H1V7H2V9ZM15 9H14V7H15V9ZM2 6H1V4H2V6ZM15 6H14V4H15V6ZM15 3H14V2H13V1H15V3ZM6 2H4V1H6V2ZM9 2H7V1H9V2ZM12 2H10V1H12V2Z" fill="black"/>
</g>
</g>
</svg>
