<svg width="16" height="16" viewBox="0 0 16 16" fill="none" xmlns="http://www.w3.org/2000/svg">
<g id="snap-nodes-rotation-center">
<g id=".snap-nodes-rotation-center">
<path id="Union" opacity="0.7" d="M4.70703 10L4 10.707L3 9.70703V11.5C3 12.3284 3.67161 13 4.5 13H7V14H4.5C3.11932 14 2 12.8807 2 11.5V9.70703L1 10.707L0.292969 10L2.5 7.79297L4.70703 10ZM11.5 2C12.8807 2 14 3.11929 14 4.5V6.79297L15 5.79297L15.707 6.5L13.5 8.70703L11.293 6.5L12 5.79297L13 6.79297V4.5C13 3.67157 12.3284 3 11.5 3H9V2H11.5Z" fill="black"/>
<circle class="error" cx="8.00098" cy="8" r="1.5" fill="#F73664"/>
</g>
</g>
</svg>
