<svg width="16" height="16" viewBox="0 0 16 16" fill="none" xmlns="http://www.w3.org/2000/svg">
<g id="snap-bounding-box-midpoints">
<g id=".snap-bounding-box-midpoints" clip-path="url(#clip0_3684_42669)">
<path id="Union" opacity="0.7" d="M2 14H3V15H1V13H2V14ZM5 15H4V14H5V15ZM12 15H11V14H12V15ZM15 15H13V14H14V13H15V15ZM2 12H1V11H2V12ZM15 12H14V11H15V12ZM2 5H1V4H2V5ZM15 5H14V4H15V5ZM3 2H2V3H1V1H3V2ZM15 3H14V2H13V1H15V3ZM5 2H4V1H5V2ZM9 2H7V1H9V2ZM12 2H11V1H12V2Z" fill="black"/>
<path class="error" d="M8 13C8.82843 13 9.5 13.6716 9.5 14.5C9.5 15.3284 8.82843 16 8 16C7.17157 16 6.5 15.3284 6.5 14.5C6.5 13.6716 7.17157 13 8 13ZM1.5 6.5C2.32843 6.5 3 7.17157 3 8C3 8.82843 2.32843 9.5 1.5 9.5C0.671573 9.5 0 8.82843 0 8C0 7.17157 0.671573 6.5 1.5 6.5ZM14.5 6.5C15.3284 6.5 16 7.17157 16 8C16 8.82843 15.3284 9.5 14.5 9.5C13.6716 9.5 13 8.82843 13 8C13 7.17157 13.6716 6.5 14.5 6.5ZM8 0C8.82843 0 9.5 0.671573 9.5 1.5C9.5 2.32843 8.82843 3 8 3C7.17157 3 6.5 2.32843 6.5 1.5C6.5 0.671573 7.17157 0 8 0Z" fill="#F73664"/>
</g>
</g>
<defs>
<clipPath id="clip0_3684_42669">
<rect width="16" height="16" fill="white"/>
</clipPath>
</defs>
</svg>
