<svg width="16" height="16" viewBox="0 0 16 16" fill="none" xmlns="http://www.w3.org/2000/svg">
<g id="snap-nodes-path">
<g id=".snap-nodes-path">
<path id="Subtract" opacity="0.7" d="M5.55078 7.5C5.51799 7.66154 5.50098 7.82878 5.50098 8C5.50098 8.17122 5.51799 8.33846 5.55078 8.5H4.75C3.23122 8.5 2 9.73122 2 11.25C2 12.7688 3.23122 14 4.75 14H15V15H4.75C2.67893 15 1 13.3211 1 11.25C1 9.17893 2.67893 7.5 4.75 7.5H5.55078ZM11.25 1C13.3211 1 15 2.67893 15 4.75C15 6.82107 13.3211 8.5 11.25 8.5H10.4512C10.484 8.33846 10.501 8.17122 10.501 8C10.501 7.82878 10.484 7.66154 10.4512 7.5H11.25C12.7688 7.5 14 6.26878 14 4.75C14 3.23122 12.7688 2 11.25 2H1V1H11.25Z" fill="black"/>
<circle class="error" cx="8" cy="8" r="1.5" fill="#F73664"/>
</g>
</g>
</svg>
