<svg width="16" height="16" viewBox="0 0 16 16" fill="none" xmlns="http://www.w3.org/2000/svg">
<g id="snap-lines-tangential">
<g id=".snap-lines-tangential">
<path id="Subtract" opacity="0.7" d="M9 1.9707C12.3298 1.9707 15.0293 4.67018 15.0293 8C15.0293 11.3298 12.3298 14.0293 9 14.0293C6.67028 14.0293 4.6514 12.7067 3.64746 10.7725C3.98016 10.6347 4.28034 10.4366 4.54004 10.1953C5.35079 11.8394 7.0429 12.9707 9 12.9707C11.7453 12.9707 13.9707 10.7453 13.9707 8C13.9707 5.25468 11.7453 3.0293 9 3.0293C7.04321 3.0293 5.35095 4.16009 4.54004 5.80371C4.28035 5.56251 3.98009 5.36422 3.64746 5.22656C4.65153 3.29277 6.67059 1.9707 9 1.9707Z" fill="black"/>
<path class="error" d="M3 15H2V11H3V15ZM2.50195 6.5C3.33038 6.5 4.00195 7.17157 4.00195 8C4.00195 8.82843 3.33038 9.5 2.50195 9.5C1.67353 9.5 1.00195 8.82843 1.00195 8C1.00195 7.17157 1.67353 6.5 2.50195 6.5ZM3 5H2V1H3V5Z" fill="#F73664"/>
</g>
</g>
</svg>
