<svg width="16" height="16" viewBox="0 0 16 16" fill="none" xmlns="http://www.w3.org/2000/svg">
<g id="snap-others">
<g id=".objects">
<path id="Union" opacity="0.2" d="M14 14H8L11 9L14 14ZM7 13H2V8H7V13ZM8.5 2C9.88071 2 11 3.11929 11 4.5C11 5.88071 9.88071 7 8.5 7C7.11929 7 6 5.88071 6 4.5C6 3.11929 7.11929 2 8.5 2Z" fill="black"/>
<path id="Union_2" d="M14 14H8L11 9L14 14ZM7 13H2V8H7V13ZM9.7666 13H12.2334L11 10.9434L9.7666 13ZM3 12H6V9H3V12ZM8.5 2C9.88071 2 11 3.11929 11 4.5C11 5.88071 9.88071 7 8.5 7C7.11929 7 6 5.88071 6 4.5C6 3.11929 7.11929 2 8.5 2ZM8.5 3C7.67157 3 7 3.67157 7 4.5C7 5.32843 7.67157 6 8.5 6C9.32843 6 10 5.32843 10 4.5C10 3.67157 9.32843 3 8.5 3Z" fill="black"/>
</g>
</g>
</svg>
