<?xml version="1.0" encoding="UTF-8" standalone="no"?>
<svg
   width="16"
   height="16"
   viewBox="0 0 16 16"
   fill="none"
   version="1.1"
   id="svg1"
   sodipodi:docname="text-line-through-symbolic.svg"
   inkscape:version="1.4.3 (0d15f75, 2025-12-25)"
   xmlns:inkscape="http://www.inkscape.org/namespaces/inkscape"
   xmlns:sodipodi="http://sodipodi.sourceforge.net/DTD/sodipodi-0.dtd"
   xmlns="http://www.w3.org/2000/svg"
   xmlns:svg="http://www.w3.org/2000/svg">
  <sodipodi:namedview
     id="namedview1"
     pagecolor="#ffffff"
     bordercolor="#000000"
     borderopacity="0.25"
     inkscape:showpageshadow="2"
     inkscape:pageopacity="0.0"
     inkscape:pagecheckerboard="0"
     inkscape:deskcolor="#d1d1d1"
     inkscape:zoom="20.990512"
     inkscape:cx="7.7415929"
     inkscape:cy="-0.30966371"
     inkscape:window-width="1212"
     inkscape:window-height="871"
     inkscape:window-x="0"
     inkscape:window-y="38"
     inkscape:window-maximized="0"
     inkscape:current-layer="svg1"
     showgrid="true">
    <inkscape:grid
       id="grid1"
       units="px"
       originx="0"
       originy="0"
       spacingx="1"
       spacingy="1"
       empcolor="#0099e5"
       empopacity="0.30196078"
       color="#0099e5"
       opacity="0.14901961"
       empspacing="5"
       enabled="true"
       visible="true" />
  </sodipodi:namedview>
  <defs
     id="defs1">
    <clipPath
       id="clip0_3684_42830">
      <rect
         width="16"
         height="16"
         fill="white"
         id="rect1" />
    </clipPath>
  </defs>
  <rect
     style="fill:#000000"
     id="rect2"
     width="13.5"
     height="1"
     x="1.5"
     y="7" />
  <path
     id="text3"
     style="fill:#000000"
     d="M 4.246875,3.023438 1.7,12.003906 H 3.026172 L 3.629687,9.689453 h 2.728516 l 0.601562,2.314453 H 8.285937 L 5.741015,3.023438 H 5.379687 5.00664 Z m 4.724609,0 v 8.980468 h 1.240235 v -0.964844 h 0.02344 c 0.09959,0.224069 0.227331,0.416298 0.380859,0.578126 0.157678,0.157677 0.339405,0.28005 0.546875,0.367187 0.21162,0.08299 0.444152,0.125 0.697266,0.125 0.468884,0 0.867509,-0.132875 1.195313,-0.398437 0.331952,-0.269713 0.58549,-0.654171 0.759765,-1.15625 0.178425,-0.502079 0.267578,-1.10881 0.267578,-1.81836 v -0.01172 c 0,-0.7054 -0.08915,-1.310421 -0.267578,-1.8125 C 13.640962,6.410029 13.387424,6.02728 13.055472,5.761718 12.727668,5.496155 12.332462,5.36328 11.871878,5.36328 c -0.261414,0 -0.499075,0.04543 -0.714844,0.136719 -0.21162,0.09129 -0.397009,0.217079 -0.554688,0.378906 -0.153527,0.161827 -0.2759,0.348927 -0.367187,0.560547 h -0.02344 V 3.023437 Z M 4.98125,4.498047 H 5.00664 L 6.080859,8.625 H 3.907031 Z m 6.53125,1.953125 c 0.273861,0 0.508103,0.08915 0.703125,0.267578 0.195022,0.174275 0.34353,0.433186 0.447265,0.773437 0.103736,0.336103 0.15625,0.746941 0.15625,1.232422 v 0.01172 c 0,0.489631 -0.05251,0.903889 -0.15625,1.244141 -0.103735,0.340252 -0.252243,0.600872 -0.447265,0.779297 -0.195022,0.174276 -0.427554,0.261718 -0.697266,0.261718 -0.269712,0 -0.502243,-0.09111 -0.697266,-0.269531 C 10.626071,10.573529 10.473901,10.316572 10.366015,9.98047 10.258131,9.640218 10.203906,9.22767 10.203906,8.742188 v -0.0059 c 0,-0.485481 0.05423,-0.898029 0.162109,-1.238281 C 10.473901,7.157755 10.626071,6.897135 10.821093,6.71871 11.016116,6.540285 11.246937,6.451132 11.5125,6.451132 Z" />
</svg>
