<?xml version="1.0" encoding="UTF-8" standalone="no"?>
<svg
   xmlns:dc="http://purl.org/dc/elements/1.1/"
   xmlns:cc="http://creativecommons.org/ns#"
   xmlns:rdf="http://www.w3.org/1999/02/22-rdf-syntax-ns#"
   xmlns:svg="http://www.w3.org/2000/svg"
   xmlns="http://www.w3.org/2000/svg"
   xmlns:sodipodi="http://sodipodi.sourceforge.net/DTD/sodipodi-0.dtd"
   xmlns:inkscape="http://www.inkscape.org/namespaces/inkscape"
   inkscape:version="1.0.2 (1.0.2+r75+1)"
   sodipodi:docname="connector-line-symbolic.svg"
   viewBox="0 0 16 16"
   height="16"
   width="16"
   id="svg1"
   version="1.1">
  <metadata
     id="metadata5591">
    <rdf:RDF>
      <cc:Work
         rdf:about="">
        <dc:format>image/svg+xml</dc:format>
        <dc:type
           rdf:resource="http://purl.org/dc/dcmitype/StillImage" />
      </cc:Work>
    </rdf:RDF>
  </metadata>
  <defs
     id="defs5589" />
  <style
     id="s0">
.success { fill:#009909; }
.warning { fill:#FF1990; }
.error { fill:#00AAFF; }
</style>
  <style
     id="s2">
@import '../../highlights.css';
</style>
  <sodipodi:namedview
     inkscape:document-rotation="0"
     inkscape:current-layer="svg1"
     inkscape:window-maximized="1"
     inkscape:window-y="20"
     inkscape:window-x="66"
     inkscape:window-height="843"
     inkscape:window-width="1534"
     inkscape:cy="7.8529884"
     inkscape:cx="11.869011"
     inkscape:zoom="30.834811"
     showgrid="true"
     id="namedview"
     guidetolerance="10"
     gridtolerance="10"
     objecttolerance="10">
    <inkscape:grid
       id="grid"
       type="xygrid" />
  </sodipodi:namedview>
  <g
     id="g852">
    <path
       style="opacity:1"
       d="M 6,3 V 3.5 9 h 4 v 3.5 0.5 h 1 V 12.5 8 H 7 V 3.5 3 Z"
       id="path845"
       class="success" />
    <path
       inkscape:connector-curvature="0"
       id="rect16122-3"
       d="m 4,2 h 5 c 0.554,0 1,0.446 1,1 V 4 C 10,4.554 9.554,5 9,5 H 4 C 3.446,5 3,4.554 3,4 V 3 C 3,2.446 3.446,2 4,2 Z"
       sodipodi:nodetypes="sssssssss" />
    <path
       inkscape:connector-curvature="0"
       id="rect16124-6"
       d="m 8,12 h 5 c 0.554,0 1,0.446 1,1 v 1 c 0,0.554 -0.446,1 -1,1 H 8 C 7.446,15 7,14.554 7,14 v -1 c 0,-0.554 0.446,-1 1,-1 z"
       sodipodi:nodetypes="sssssssss" />
  </g>
</svg>
