<?xml version="1.0" encoding="UTF-8" standalone="no"?>
<svg
   inkscape:version="1.4 (86a8ad7, 2024-10-11)"
   sodipodi:docname="node-type-elipse-control-symbolic.svg"
   viewBox="0 0 16 16"
   height="16"
   width="16"
   id="svg1"
   version="1.1"
   xmlns:inkscape="http://www.inkscape.org/namespaces/inkscape"
   xmlns:sodipodi="http://sodipodi.sourceforge.net/DTD/sodipodi-0.dtd"
   xmlns="http://www.w3.org/2000/svg"
   xmlns:svg="http://www.w3.org/2000/svg"
   xmlns:rdf="http://www.w3.org/1999/02/22-rdf-syntax-ns#"
   xmlns:cc="http://creativecommons.org/ns#"
   xmlns:dc="http://purl.org/dc/elements/1.1/">
  <style
     id="s0">
   .success { fill: #009909; }
   .warning { fill: #FF1990; }
   .error   { fill: #00AAFF; }
  </style>
  <style
     id="s2">
     @import '../../highlights.css'; 
  </style>
  <metadata
     id="metadata2052">
    <rdf:RDF>
      <cc:Work
         rdf:about="">
        <dc:format>image/svg+xml</dc:format>
        <dc:type
           rdf:resource="http://purl.org/dc/dcmitype/StillImage" />
      </cc:Work>
    </rdf:RDF>
  </metadata>
  <defs
     id="defs2050" />
  <sodipodi:namedview
     inkscape:document-rotation="0"
     inkscape:current-layer="node-type-auto-smooth"
     inkscape:window-maximized="1"
     inkscape:window-y="-8"
     inkscape:window-x="1912"
     inkscape:window-height="1177"
     inkscape:window-width="1854"
     inkscape:cy="1.9781986"
     inkscape:cx="-6.0907694"
     inkscape:zoom="19.209396"
     showgrid="true"
     id="namedview"
     guidetolerance="10"
     gridtolerance="10"
     objecttolerance="10"
     pagecolor="#ffffff"
     bordercolor="#000000"
     borderopacity="0.25"
     inkscape:showpageshadow="2"
     inkscape:pageopacity="0.0"
     inkscape:pagecheckerboard="0"
     inkscape:deskcolor="#d1d1d1">
    <inkscape:grid
       id="grid"
       type="xygrid"
       originx="0"
       originy="0"
       spacingy="1"
       spacingx="1"
       units="px" />
  </sodipodi:namedview>
  <g
     inkscape:label="00204"
     id="node-type-auto-smooth"
     transform="matrix(0.998641,0,0,1,-648.09632,-558.36218)">
    <path
       style="opacity:0;fill:none"
       d="m 649,558.36218 h 16 v 16 h -16 z"
       id="rect16805"
       inkscape:connector-curvature="0" />
    <path
       id="path16803"
       style="opacity:1;stroke-width:0.999997"
       d="m 661.99597,559.35111 c 0,2.01107 -0.8663,6.01107 -5.0068,6.01107 -4.1405,0 -5.00681,-4 -5.00681,-6 h -3.00408 v 1 h 2.00272 c 0,2 1.52055,6.12884 6.00817,6.12884 4.48762,0 6.00816,-4.12884 6.00816,-6.12884 l 2.00273,-0.021 v -0.97898 z"
       inkscape:connector-curvature="0"
       sodipodi:nodetypes="czcccczcccc" />
    <path
       class="warning"
       style="opacity:1;stroke-width:1.5"
       d="m 660,571.38156 a 3,3 0 0 1 -3,3 3,3 0 0 1 -3,-3 3,3 0 0 1 3,-3 3,3 0 0 1 3,3 z"
       id="path16809"
       inkscape:connector-curvature="0" />
  </g>
</svg>
