<svg width="16" height="16" viewBox="0 0 16 16" fill="none" xmlns="http://www.w3.org/2000/svg">
<path d="M15.3118 0.00639413C15.1796 0.0324064 15.0629 0.109221 14.987 0.220255C14.9111 0.331288 14.8821 0.467635 14.9061 0.599861C15.1392 2.1952 14.8455 4.32111 13.7828 6.00353C13.1512 7.00347 12.2543 7.8478 11.0056 8.3774V9.50187C12.6584 8.90782 13.8621 7.82337 14.6565 6.56577C15.8814 4.62675 16.1722 2.30671 15.9046 0.474921C15.8995 0.404181 15.8797 0.335277 15.8464 0.272579C15.8132 0.209881 15.7672 0.154759 15.7115 0.110707C15.6558 0.0666546 15.5914 0.0346343 15.5226 0.0166775C15.4538 -0.00127934 15.3821 -0.00478137 15.3118 0.00639413ZM0.614571 0.131335C0.493448 0.1353 0.377493 0.181065 0.286439 0.260816C0.195385 0.340567 0.134877 0.449361 0.115303 0.568626C-0.181961 2.39481 0.0623807 4.71598 1.23866 6.62824C2.0293 7.91356 3.27498 8.9971 5.01443 9.56434V8.50234C3.6695 8.001 2.74495 7.12546 2.11237 6.09724C1.10046 4.45206 0.884486 2.35696 1.1451 0.756037C1.16071 0.678836 1.15857 0.599114 1.13889 0.522845C1.11921 0.446576 1.08248 0.375739 1.03144 0.315641C0.980402 0.255544 0.91641 0.207742 0.844214 0.175823C0.772019 0.143905 0.693499 0.128696 0.614571 0.131335Z" fill="black"/>
<path d="M10.5 10.4997L9.2501 12.6646H6.75029L5.50039 10.4997L6.75029 8.3349H9.2501L10.5 10.4997Z" fill="#FF1990"/>
<path d="M11.0078 11.002H13.0049V12.0015H11.0078V11.002Z" fill="#FF1990"/>
<path d="M3.01562 11.002H5.0127V12.0015H3.01562V11.002Z" fill="#FF1990"/>
<path d="M15.5034 11.5481C15.5034 11.9499 15.3456 12.3352 15.0647 12.6193C14.7838 12.9034 14.4029 13.063 14.0056 13.063C13.6084 13.063 13.2274 12.9034 12.9465 12.6193C12.6656 12.3352 12.5078 11.9499 12.5078 11.5481C12.5078 11.1463 12.6656 10.761 12.9465 10.4769C13.2274 10.1928 13.6084 10.0332 14.0056 10.0332C14.4029 10.0332 14.7838 10.1928 15.0647 10.4769C15.3456 10.761 15.5034 11.1463 15.5034 11.5481Z" fill="#FF1990"/>
<path d="M3.51904 11.5169C3.51904 11.9186 3.36125 12.304 3.08036 12.5881C2.79946 12.8722 2.41848 13.0318 2.02124 13.0318C1.624 13.0318 1.24302 12.8722 0.962125 12.5881C0.681233 12.304 0.523438 11.9186 0.523438 11.5169C0.523438 11.1151 0.681233 10.7298 0.962125 10.4457C1.24302 10.1616 1.624 10.002 2.02124 10.002C2.41848 10.002 2.79946 10.1616 3.08036 10.4457C3.36125 10.7298 3.51904 11.1151 3.51904 11.5169Z" fill="#FF1990"/>
</svg>
