<svg width="18" height="16" viewBox="0 0 18 16" fill="none" xmlns="http://www.w3.org/2000/svg">
<path d="M1.5834 1.56445C1.05628 5.01685 2.9703 11.0945 8.9703 11.0945C14.9703 11.0945 16.9591 5.01685 16.4862 1.56445M3.5486 11.1984H14.4412" stroke="#646464" stroke-linecap="round" stroke-linejoin="round"/>
<path d="M12 11L10.5 13.5981L7.5 13.5981L6 11L7.5 8.40192L10.5 8.40192L12 11Z" fill="#6464FF" fill-opacity="0.392157" stroke="#0000FF" stroke-linejoin="round"/>
<path d="M2.5119 10.2227H2.462C1.90481 10.2227 1.45312 10.6744 1.45312 11.2315C1.45312 11.7887 1.90481 12.2404 2.462 12.2404H2.5119C3.06909 12.2404 3.52077 11.7887 3.52077 11.2315C3.52077 10.6744 3.06909 10.2227 2.5119 10.2227Z" fill="white" fill-opacity="0.392157" stroke="#0000FF" stroke-linecap="round" stroke-linejoin="round"/>
<path d="M16.4908 11.2102C16.4908 10.6519 16.0382 10.1992 15.4798 10.1992C14.9214 10.1992 14.4688 10.6519 14.4688 11.2102V11.2149C14.4688 11.7732 14.9214 12.2259 15.4798 12.2259C16.0382 12.2259 16.4908 11.7732 16.4908 11.2149V11.2102Z" fill="white" fill-opacity="0.392157" stroke="#0000FF" stroke-linecap="round" stroke-linejoin="round"/>
</svg>
