<?xml version="1.0" encoding="UTF-8" standalone="no"?>
<!-- Created with Inkscape (http://www.inkscape.org/) -->

<svg
   width="100mm"
   height="100mm"
   viewBox="0 0 100 100"
   version="1.1"
   id="svg1"
   inkscape:version="1.5-dev (aa7e786381, 2024-11-13)"
   sodipodi:docname="07-test-shapes.svg"
   xmlns:inkscape="http://www.inkscape.org/namespaces/inkscape"
   xmlns:sodipodi="http://sodipodi.sourceforge.net/DTD/sodipodi-0.dtd"
   xmlns="http://www.w3.org/2000/svg"
   xmlns:svg="http://www.w3.org/2000/svg">
  <sodipodi:namedview
     id="namedview1"
     pagecolor="#ffffff"
     bordercolor="#000000"
     borderopacity="0.25"
     inkscape:showpageshadow="2"
     inkscape:pageopacity="0.0"
     inkscape:pagecheckerboard="0"
     inkscape:deskcolor="#d1d1d1"
     inkscape:document-units="mm"
     inkscape:zoom="0.5"
     inkscape:cx="1603"
     inkscape:cy="249"
     inkscape:window-width="1706"
     inkscape:window-height="896"
     inkscape:window-maximized="0"
     inkscape:current-layer="layer1">
    <inkscape:page
       x="0"
       y="0"
       width="100"
       height="100"
       id="page1"
       margin="10"
       bleed="0" />
    <inkscape:page
       x="110"
       y="0"
       width="100"
       height="100"
       id="page2"
       margin="10"
       bleed="0" />
    <inkscape:page
       x="220"
       y="0"
       width="100"
       height="100"
       id="page19"
       margin="10"
       bleed="0" />
    <inkscape:page
       x="330"
       y="0"
       width="100"
       height="100"
       id="page25"
       margin="0"
       bleed="0" />
  </sodipodi:namedview>
  <defs
     id="defs1">
    <inkscape:perspective
       sodipodi:type="inkscape:persp3d"
       inkscape:vp_x="-46.433487 : 88.6147 : 1"
       inkscape:vp_y="0 : 747.84516 : 0"
       inkscape:vp_z="37.392258 : 12.464086 : 0"
       inkscape:persp3d-origin="-9.0412289 : 76.150613 : 1"
       id="perspective19" />
  </defs>
  <g
     inkscape:label="Layer 1"
     inkscape:groupmode="layer"
     id="layer1"
     style="fill:#800080">
    <rect
       style="fill:#ff0000;fill-opacity:1;stroke:none;stroke-width:1.80905;stroke-linecap:round;stroke-linejoin:round;stroke-dasharray:none;stroke-opacity:1;paint-order:normal"
       id="rect14"
       width="25"
       height="25"
       x="10"
       y="10" />
    <rect
       style="fill:#640088;fill-opacity:1;stroke:none;stroke-width:1.80905;stroke-linecap:round;stroke-linejoin:round;stroke-dasharray:none;stroke-opacity:1;paint-order:normal"
       id="rect14-5"
       width="25"
       height="25"
       x="65.189262"
       y="35.860413"
       ry="9.3627357" />
    <circle
       style="fill:#00ffff;fill-opacity:1;stroke:none;stroke-width:1.49446;stroke-linecap:round;stroke-linejoin:round;stroke-dasharray:none;stroke-opacity:1;paint-order:normal"
       id="path14"
       cx="22.5"
       cy="77.5"
       r="12.5" />
    <path
       style="fill:#1a1a1a;fill-opacity:1;stroke:none;stroke-width:1.15095;stroke-linecap:round;stroke-linejoin:round;stroke-dasharray:none;stroke-opacity:1;paint-order:normal"
       id="circle14"
       sodipodi:type="arc"
       sodipodi:cx="50"
       sodipodi:cy="77.5"
       sodipodi:rx="7.4140058"
       sodipodi:ry="12.5"
       sodipodi:start="0"
       sodipodi:end="4.7275305"
       sodipodi:open="true"
       sodipodi:arc-type="arc"
       d="M 57.414006,77.5 A 7.4140058,12.5 0 0 1 52.811268,89.066519 7.4140058,12.5 0 0 1 44.717967,86.271665 7.4140058,12.5 0 0 1 43.183013,72.585622 7.4140058,12.5 0 0 1 50.112255,65.001433" />
    <path
       style="fill:#447821;fill-opacity:1;stroke:none;stroke-width:1.49446;stroke-linecap:round;stroke-linejoin:round;stroke-dasharray:none;stroke-opacity:1;paint-order:normal"
       id="path15"
       sodipodi:type="arc"
       sodipodi:cx="77.5"
       sodipodi:cy="77.5"
       sodipodi:rx="12.5"
       sodipodi:ry="12.5"
       sodipodi:start="0"
       sodipodi:end="4.7275305"
       sodipodi:arc-type="slice"
       d="M 90,77.5 A 12.5,12.5 0 0 1 82.239793,89.066519 12.5,12.5 0 0 1 68.594502,86.271665 12.5,12.5 0 0 1 66.006572,72.585622 12.5,12.5 0 0 1 77.689262,65.001433 L 77.5,77.5 Z" />
    <path
       sodipodi:type="star"
       style="fill-opacity:1;stroke:none;stroke-width:2.002;stroke-linecap:round;stroke-linejoin:round;stroke-dasharray:none;stroke-opacity:1;paint-order:normal;fill:#0000ff"
       id="path16"
       inkscape:flatsided="true"
       sodipodi:sides="3"
       sodipodi:cx="140.37076"
       sodipodi:cy="25.699722"
       sodipodi:r1="19.232164"
       sodipodi:r2="9.5253401"
       sodipodi:arg1="-2.6236088"
       sodipodi:arg2="-1.5764112"
       inkscape:rounded="0"
       inkscape:randomized="0"
       d="m 123.66148,16.177311 33.31057,-0.187038 -16.49331,28.941311 z"
       inkscape:transform-center-x="0.17724227"
       inkscape:transform-center-y="-3.4198498"
       transform="matrix(0.75051273,0,0,-0.75051273,-27.809517,43.721725)" />
    <path
       sodipodi:type="star"
       style="fill-opacity:1;stroke:none;stroke-width:2.002;stroke-linecap:round;stroke-linejoin:round;stroke-dasharray:none;stroke-opacity:1;paint-order:normal;fill:#00ff00"
       id="path17"
       inkscape:flatsided="true"
       sodipodi:sides="4"
       sodipodi:cx="140.37076"
       sodipodi:cy="25.699722"
       sodipodi:r1="19.05068"
       sodipodi:r2="9.5253401"
       sodipodi:arg1="1.5460008"
       sodipodi:arg2="2.331399"
       inkscape:rounded="0"
       inkscape:randomized="0"
       d="m 140.84308,44.744546 -19.51715,-18.5725 18.5725,-19.5171478 19.51715,18.5725008 z"
       inkscape:transform-center-x="0.15500356"
       inkscape:transform-center-y="2.990763"
       transform="matrix(0.65634631,0,0,0.65634631,-42.131828,5.3220745)" />
    <path
       sodipodi:type="star"
       style="fill:#ff00ff;fill-opacity:1;stroke:none;stroke-width:2.002;stroke-linecap:round;stroke-linejoin:round;stroke-dasharray:none;stroke-opacity:1;paint-order:normal"
       id="path18"
       inkscape:flatsided="true"
       sodipodi:sides="5"
       sodipodi:cx="140.37076"
       sodipodi:cy="25.699722"
       sodipodi:r1="19.05068"
       sodipodi:r2="9.5253401"
       sodipodi:arg1="1.5460008"
       sodipodi:arg2="2.1743193"
       inkscape:rounded="0"
       inkscape:randomized="0"
       d="m 140.84308,44.744546 -18.43907,-12.710443 6.39036,-21.464342 22.38854,-0.55525 7.44651,21.121179 z"
       inkscape:transform-center-x="0.16297995"
       inkscape:transform-center-y="3.1446742"
       transform="matrix(0.69012335,0,0,0.69012335,-74.699099,31.104748)" />
    <path
       sodipodi:type="star"
       style="fill:#ffcc00;fill-opacity:1;stroke:none;stroke-width:2.002;stroke-linecap:round;stroke-linejoin:round;stroke-dasharray:none;stroke-opacity:1;paint-order:normal"
       id="path19"
       inkscape:flatsided="false"
       sodipodi:sides="6"
       sodipodi:cx="140.37076"
       sodipodi:cy="25.699722"
       sodipodi:r1="19.05068"
       sodipodi:r2="9.5253401"
       sodipodi:arg1="1.5460008"
       sodipodi:arg2="2.0695996"
       inkscape:rounded="0"
       inkscape:randomized="0"
       d="m 140.84308,44.744546 -5.02901,-10.680092 -11.70045,1.566724 6.73473,-9.695294 -7.20706,-9.34953 11.76374,0.984798 4.4934,-10.9162538 5.02901,10.6800928 11.70046,-1.566725 -6.73473,9.695295 7.20705,9.349529 -11.76373,-0.984798 z"
       inkscape:transform-center-x="0.15500285"
       inkscape:transform-center-y="2.9907637"
       transform="matrix(0.65634631,0,0,0.65634631,-42.244446,32.977078)" />
    <g
       sodipodi:type="inkscape:box3d"
       id="g19"
       style="fill:#800080;fill-opacity:1;stroke:none;stroke-width:7.56661;stroke-linecap:round;stroke-linejoin:round;stroke-dasharray:none;stroke-opacity:1;paint-order:normal;stop-color:#000000"
       inkscape:perspectiveID="#perspective19"
       inkscape:corner0="-0.77533212 : 0.015980154 : 0 : 1"
       inkscape:corner7="-0.80383981 : 0.0050997632 : 0.062992664 : 1">
      <path
         sodipodi:type="inkscape:box3dside"
         id="path25"
         style="fill:#e9e9ff;fill-rule:evenodd;stroke:none;stroke-linejoin:round"
         inkscape:box3dsidetype="11"
         d="m 130.48409,10.175781 25.71118,-0.175777 v 41.480627 l -25.71118,-5.087622 z"
         points="156.19527,10.000004 156.19527,51.480631 130.48409,46.393009 130.48409,10.175781 " />
      <path
         sodipodi:type="inkscape:box3dside"
         id="path20"
         style="fill:#353564;fill-rule:evenodd;stroke:none;stroke-linejoin:round"
         inkscape:box3dsidetype="6"
         d="m 120,13.670478 v 36.217227 l 10.48409,-3.494696 V 10.175781 Z"
         points="120,49.887705 130.48409,46.393009 130.48409,10.175781 120,13.670478 " />
      <path
         sodipodi:type="inkscape:box3dside"
         id="path24"
         style="fill:#afafde;fill-rule:evenodd;stroke:none;stroke-linejoin:round"
         inkscape:box3dsidetype="13"
         d="m 120,49.887705 24.18755,5.595501 12.00772,-4.002575 -25.71118,-5.087622 z"
         points="144.18755,55.483206 156.19527,51.480631 130.48409,46.393009 120,49.887705 " />
      <path
         sodipodi:type="inkscape:box3dside"
         id="path21"
         style="fill:#4d4d9f;fill-rule:evenodd;stroke:none;stroke-linejoin:round"
         inkscape:box3dsidetype="5"
         d="m 120,13.670478 24.18755,0.332102 12.00772,-4.002576 -25.71118,0.175777 z"
         points="144.18755,14.00258 156.19527,10.000004 130.48409,10.175781 120,13.670478 " />
      <path
         sodipodi:type="inkscape:box3dside"
         id="path23"
         style="fill:#d7d7ff;fill-rule:evenodd;stroke:none;stroke-linejoin:round"
         inkscape:box3dsidetype="14"
         d="m 144.18755,14.00258 v 41.480626 l 12.00772,-4.002575 V 10.000004 Z"
         points="144.18755,55.483206 156.19527,51.480631 156.19527,10.000004 144.18755,14.00258 " />
      <path
         sodipodi:type="inkscape:box3dside"
         id="path22"
         style="fill:#8686bf;fill-rule:evenodd;stroke:none;stroke-linejoin:round"
         inkscape:box3dsidetype="3"
         d="m 120,13.670478 24.18755,0.332102 V 55.483206 L 120,49.887705 Z"
         points="144.18755,14.00258 144.18755,55.483206 120,49.887705 120,13.670478 " />
    </g>
    <path
       style="fill:#800080;fill-opacity:1;stroke:none;stroke-width:2.49351;stroke-linecap:round;stroke-linejoin:round;stroke-dasharray:none;stroke-opacity:1;paint-order:normal"
       d="m 164.12883,23.239471 c 0,0 12.39508,-14.3646123 16.01873,-13.168742 3.62367,1.195872 12.65257,10.558164 12.65257,10.558164 0,0 14.31569,-2.526896 2.57452,9.379027 -11.74115,11.905922 -21.73294,25.251011 -28.53999,15.681476 -6.80709,-9.569533 3.22329,-15.131811 9.61717,-17.394828 6.39382,-2.263015 9.84116,-9.828283 4.68306,-11.067921 -5.15806,-1.239638 -17.00606,6.012824 -17.00606,6.012824 z"
       id="path27" />
    <path
       style="fill:none;fill-opacity:1;stroke:#000000;stroke-width:2.02108;stroke-linecap:round;stroke-linejoin:round;stroke-dasharray:none;stroke-opacity:1;paint-order:normal"
       d="m 121.0438,61.988533 c 0.42506,0.165486 1.10321,0.905564 1.27514,0.496456 0.17193,-0.409107 -1.65664,-0.741252 -1.27514,-0.496456 3.37453,2.165312 6.71291,2.984118 10.53195,3.903064 1.14148,0.274661 4.32938,0.953671 5.44517,0.524091 0.30383,-0.116965 0.51776,-0.396181 0.81679,-0.524091 1.28109,-0.548016 2.60272,-0.845054 3.81163,-1.572281 0.38478,-0.231473 0.68318,-0.590823 1.08903,-0.786139 0.3347,-0.161064 0.7387,-0.135592 1.08904,-0.262048 1.1338,-0.409223 2.13331,-1.163058 3.2671,-1.57228 0.72275,-0.260859 2.05045,-0.394706 2.7226,-0.524092 1.37751,-0.265168 2.91969,-0.869741 4.35616,-0.524094 0.75407,0.181447 2.24747,1.321182 2.73002,1.578423 1.38012,0.735706 2.92914,1.05633 4.38698,1.582514 0.76005,0.274325 1.43201,0.740428 2.17808,1.048189 0.77296,0.318838 1.16197,0.118857 1.90582,0.262045 1.45638,0.280353 2.51498,0.923275 4.08388,0.78614 3.5636,-0.311485 4.12837,-3.418287 6.90538,-4.754714 0.33471,-0.161064 0.74511,-0.120177 1.08905,-0.262045 0.30458,-0.125636 1.27243,-0.699244 1.63355,-0.786141 0.83173,-0.200133 4.45494,-0.119137 5.44518,0 0.37131,0.04467 0.72604,0.174697 1.08905,0.262046 0.54451,0.08734 1.08427,0.209177 1.63354,0.262047 2.76109,0.265753 7.8447,0.245577 10.34584,-0.78614 0.30078,-0.124062 0.52413,-0.383248 0.81679,-0.524092 0.16234,-0.07814 0.41108,0.11841 0.54453,0 0.0615,-0.05458 -0.0592,-0.184636 0,-0.241578 0.29003,-0.279153 0.83246,-0.349571 1.03904,-0.759525 0.078,-0.154893 0.27226,-1.658337 0.27226,-1.824089"
       id="path28" />
    <path
       style="fill:#1a1a1a;fill-opacity:1;stroke:none;stroke-width:2.00723;stroke-linecap:round;stroke-linejoin:round;stroke-dasharray:none;stroke-opacity:1;paint-order:normal"
       id="path29"
       d="m 120,84.588662 c 0.48062,0.249847 0.96703,0.489347 1.44186,0.749536 1.27645,0.699432 1.53163,0.793497 2.49299,1.605782 0.71176,0.601368 0.77308,0.881495 1.72312,1.430325 0.69693,0.402636 1.45573,0.693314 2.1836,1.039971 0.68684,0.138574 1.36412,0.334321 2.06053,0.415723 0.59864,0.06999 1.20579,0.0179 1.80847,0.03653 1.49356,0.04619 2.98059,0.117824 4.47638,0.124001 1.76579,0.07245 3.5019,-0.284245 5.22233,-0.61021 0.51157,-0.09692 1.03132,-0.146878 1.54728,-0.218455 1.85432,-0.20646 3.58315,-0.834771 5.23194,-1.665346 1.10104,-0.554656 2.14001,-1.221548 3.23928,-1.779583 0.47561,-0.241446 0.96682,-0.452468 1.4502,-0.678701 0.71178,-0.309744 1.16859,-0.551877 1.86511,-0.750211 0.0559,-0.01594 0.22884,-0.03778 0.17389,-0.01879 -0.19112,0.06606 -0.78482,0.125613 -0.58536,0.161021 0.55787,0.09904 2.52283,-0.234964 2.89484,-0.287473 0.82935,-0.176621 1.73683,-0.408213 2.59836,-0.483518 0.69387,-0.06065 1.41487,0.07064 2.10515,0.107412 0.48361,0.02576 0.96781,0.03959 1.45172,0.05938 0.48761,0.0059 0.97579,-0.0061 1.46281,0.01761 0.71818,0.03507 1.42921,0.159891 2.14637,0.211168 1.21419,0.08682 2.41613,0.07728 3.6314,0.03844 0.26692,-0.0084 1.53672,-0.05366 1.79572,-0.03888 0.26427,0.01509 0.52346,0.07823 0.78642,0.107991 0.99014,0.112064 1.66782,0.149811 2.58428,0.443472 1.13465,0.77006 2.30814,1.554058 3.59895,2.06453 0.40605,0.160582 0.82796,0.279858 1.24198,0.419788 0.18849,0.07176 0.37913,0.138306 0.56542,0.215301 0.17796,0.07355 0.34043,0.186414 0.52681,0.236137 0.79493,0.212041 1.59228,0.431963 2.40792,0.546689 1.62832,0.229033 3.3183,0.02854 4.94656,-0.09327 1.72736,-0.166085 3.31719,-0.77364 4.80101,-1.62935 2.53641,-1.462722 -0.31329,0.12834 1.30028,-0.767783 0.31109,-0.18348 0.61478,-0.37951 0.9333,-0.550442 0.17665,-0.09479 0.36538,-0.166405 0.54995,-0.245522 0.17569,-0.07532 0.35187,-0.149915 0.53075,-0.217736 0.14602,-0.05536 -0.27553,0.175367 -0.43208,0.18032 -0.87962,0.02782 -2.70887,0.772883 -2.63888,-0.08321 0.26926,-3.291729 2.27265,-6.22092 3.40896,-9.331382 4.19317,3.007186 2.24082,0.662832 0.0558,9.062354 0,0 -3.78754,-9.188661 -3.78754,-9.188661 v 0 c -2.4651,8.550375 -4.38791,6.077057 -0.0602,9.313274 1.24047,-3.069541 3.47187,-5.918037 3.72131,-9.208627 0.0896,-1.182116 -3.63674,-0.06554 -4.30449,0.168987 -0.5828,0.204689 -1.82799,0.825852 -2.29801,1.076593 -0.27453,0.146427 -0.53513,0.3164 -0.80271,0.4746 -0.32391,0.187444 -0.63346,0.398175 -0.95963,0.581874 -0.23016,0.129626 -0.48282,0.221961 -0.70236,0.368108 -0.0562,0.03745 0.13365,-0.04264 0.20125,-0.0345 0.0204,0.0024 0.0258,0.05017 0.008,0.05969 -0.0941,0.04948 -0.20334,0.0644 -0.30503,0.09659 -0.40633,0.0308 -1.49821,0.113047 -1.94727,0.148755 -0.18913,0.01504 -0.39201,-0.0239 -0.56727,0.04718 -0.0539,0.02186 0.0981,0.181559 0.0419,0.165928 -0.75516,-0.210258 -1.39856,-0.726093 -2.18821,-0.851901 -0.0199,0.133185 0.004,0.07043 -0.27941,-0.06259 -0.17217,-0.08085 -0.34413,-0.163506 -0.50667,-0.261514 -1.38333,-0.834147 -2.70646,-1.757109 -4.2876,-2.227643 -0.47073,-0.123182 -0.93618,-0.267477 -1.4122,-0.369541 -1.12531,-0.241285 -1.80899,-0.301761 -2.93927,-0.401927 -1.32103,-0.117072 -2.62039,-0.216733 -3.9448,-0.1117 -0.44585,0.01689 -1.00997,0.04417 -1.45479,0.03655 -1.67866,-0.02877 -3.33994,-0.372982 -5.02292,-0.301984 -1.26584,-0.0463 -2.541,-0.190942 -3.80816,-0.165032 -1.48815,0.03042 -2.9623,0.237659 -4.40146,0.605396 -1.05568,0.235107 -2.10629,0.149079 -3.18834,0.306941 -1.32433,0.19321 -2.72958,0.967757 -3.94543,1.452103 -2.19442,1.049677 -1.65281,0.749186 -3.70764,1.888179 -1.13278,0.627907 -1.874,1.241478 -3.22029,1.340561 -0.77874,0.109721 -1.56315,0.208243 -2.33525,0.359887 -1.62044,0.318261 1.34449,-0.124056 -1.51119,0.263177 -0.13091,0.02172 -0.25376,0.08573 -0.38617,0.09537 -0.35261,0.02568 -0.70712,0.0066 -1.06073,0.01001 -1.16577,-0.0031 -2.32603,-0.0305 -3.49082,-0.0767 -0.40113,-0.01591 -0.80201,-0.0532 -1.20339,-0.04576 -0.049,7.85e-4 -0.10972,0.02608 -0.12776,0.07042 -0.0166,0.04081 0.0328,0.08181 0.0492,0.122715 0.14066,0.12871 0.61154,0.351677 0.42198,0.386131 -0.2094,0.03806 -0.35222,-0.235105 -0.51494,-0.369232 -0.45385,-0.374065 -0.868,-0.793574 -1.33323,-1.154094 -1.44812,-1.122268 -2.26372,-1.599411 -3.89794,-2.468228 -0.71418,-0.379673 -1.44791,-0.723193 -2.17186,-1.084791 z" />
    <path
       sodipodi:type="spiral"
       style="fill:none;fill-rule:evenodd;stroke:#504416;stroke-width:0.264583"
       id="path97"
       sodipodi:cx="79.243744"
       sodipodi:cy="49.329285"
       sodipodi:expansion="1"
       sodipodi:revolution="3"
       sodipodi:radius="11.25587"
       sodipodi:argument="-17.802359"
       sodipodi:t0="0"
       d="m 79.243744,49.329285 c 0.282176,0.488742 -0.5196,0.621495 -0.812322,0.468994 -0.793261,-0.413268 -0.639373,-1.529939 -0.125668,-2.093639 0.918899,-1.008328 2.527376,-0.724308 3.374957,0.21766 1.243859,1.382376 0.815677,3.539758 -0.560988,4.656274 -1.834877,1.48814 -4.557632,0.910022 -5.937591,-0.904315 -1.736537,-2.283159 -1.005955,-5.578168 1.247643,-7.218908 2.729409,-1.987156 6.600213,-1.102816 8.500225,1.59097 2.239099,3.174534 1.200261,7.6232 -1.934298,9.781542 -3.618972,2.491892 -8.646815,1.298095 -11.062859,-2.277625 -2.745263,-4.062961 -1.396201,-9.670872 2.620953,-12.344176 4.50664,-2.999044 10.69525,-1.494505 13.625493,2.96428 3.253126,4.950097 1.592956,11.71987 -3.307608,14.90681"
       transform="matrix(3.0026089,0,0,3.0026089,141.48218,-98.750283)" />
    <path
       id="path99"
       style="fill:#447821;fill-rule:evenodd;stroke:#ff0101;stroke-width:2.20063;stroke-linecap:round;stroke-linejoin:round;stroke-opacity:1"
       d="M 275.44604,22.605705 H 242.86467 V 54.11743 m 21.4301,-43.017117 h -33.19446 v 31.422988 m 55.49699,-8.412204 h -31.96827 l 0,31.600461 m 43.11954,-20.095069 h -31.35518 v 31.689198 m 42.50645,-20.183806 h -30.74209 v 31.777935"
       sodipodi:nodetypes="ccccccccccccccc" />
  </g>
</svg>
