<?xml version="1.0" encoding="UTF-8" standalone="no"?>
<svg
   xmlns:dc="http://purl.org/dc/elements/1.1/"
   xmlns:cc="http://creativecommons.org/ns#"
   xmlns:rdf="http://www.w3.org/1999/02/22-rdf-syntax-ns#"
   xmlns:svg="http://www.w3.org/2000/svg"
   xmlns="http://www.w3.org/2000/svg"
   xmlns:sodipodi="http://sodipodi.sourceforge.net/DTD/sodipodi-0.dtd"
   xmlns:inkscape="http://www.inkscape.org/namespaces/inkscape"
   inkscape:version="1.0beta1 (f5f6674, 2019-10-12)"
   sodipodi:docname="info-symbolic.svg"
   viewBox="0 0 16 16"
   height="16"
   width="16"
   id="svg1"
   version="1.1">
  <style
     id="style4788"></style>
  <metadata
     id="metadata2662">
    <rdf:RDF>
      <cc:Work
         rdf:about="">
        <dc:format>image/svg+xml</dc:format>
        <dc:type
           rdf:resource="http://purl.org/dc/dcmitype/StillImage" />
        <dc:title></dc:title>
      </cc:Work>
    </rdf:RDF>
  </metadata>
  <defs
     id="defs2660" />
  <sodipodi:namedview
     inkscape:document-rotation="0"
     inkscape:current-layer="svg1"
     inkscape:window-maximized="1"
     inkscape:window-y="0"
     inkscape:window-x="0"
     inkscape:window-height="1376"
     inkscape:window-width="2560"
     inkscape:cy="10.239151"
     inkscape:cx="10.58031"
     inkscape:zoom="54.332374"
     showgrid="true"
     id="namedview"
     guidetolerance="10"
     gridtolerance="10"
     objecttolerance="10">
    <inkscape:grid
       id="grid"
       type="xygrid" />
  </sodipodi:namedview>
  <g
     inkscape:label="00338"
     id="info"
     transform="translate(-10.48884,-199.5352)">
    <path
       style="opacity:0;fill:none"
       d="m 10.48884,199.5352 h 16 v 16 h -16 z"
       id="rect23222-9"
       inkscape:connector-curvature="0" />
  </g>
  <path
     style="fill-rule:evenodd"
     d="M 9.1453332,3.1060186 C 9.0449981,3.0935776 8.9422542,3.0949127 8.8425988,3.1079717 8.3614654,3.1709227 7.9416892,3.5184762 7.8074426,3.9888311 7.6918141,4.3964715 7.8063226,4.8815873 8.1355676,5.1157842 8.516262,5.3885721 9.0739106,5.3669718 9.485177,5.1060186 10.012758,4.7718708 10.168859,4.0716913 9.885568,3.5708624 9.730131,3.2963157 9.4463278,3.143324 9.1453332,3.1060186 Z M 8.0047082,5.8579717 C 7.5480721,5.8992257 6.8997741,6.0336467 6.1707238,6.6372686 5.8963516,6.8646068 5.1514596,7.5775517 5.0730676,7.9067998 5.0407306,8.0410466 5.1965795,8.206929 5.3465051,8.111878 5.6130392,7.943334 6.0831015,7.1713807 6.5769738,6.9048467 6.8209698,6.7735403 7.0410448,6.8500908 6.9812707,7.1567998 6.9487377,7.3243642 6.5311282,8.2876726 6.3152551,8.8560186 5.9419108,9.838864 5.4652141,10.798728 5.3054894,11.848207 c -0.053893,0.35767 0.017252,0.783591 0.3984376,0.955078 0.4517364,0.205773 1.0687078,0.05931 1.5390624,-0.144532 0.8525173,-0.369422 1.9355905,-1.318145 2.2089844,-1.953125 0.067614,-0.15678 -0.083503,-0.390976 -0.2246094,-0.289062 C 8.8824382,10.665465 8.3870922,11.450127 7.9402551,11.63141 7.6786265,11.735276 7.5481961,11.56249 7.6824426,11.154847 7.7990522,10.79816 8.4761746,9.0174719 8.8250207,8.065003 9.0200213,7.5270356 9.2896262,6.8979193 9.0730676,6.3521124 8.9086394,5.9377212 8.4104873,5.8209217 8.0047082,5.8579717 Z M 7.999441,0.98433 c -3.917552,0 -7.111325,3.14298 -7.111328,7.01563 -3e-6,3.87265 3.193772,7.01562 7.111328,7.01562 3.917557,0 7.111332,-3.14297 7.111328,-7.01562 -2e-6,-3.87265 -3.193775,-7.01563 -7.111328,-7.01563 z"
     id="path4796" />
</svg>
