<?xml version="1.0" encoding="UTF-8" standalone="no"?>
<svg
   xmlns:dc="http://purl.org/dc/elements/1.1/"
   xmlns:cc="http://creativecommons.org/ns#"
   xmlns:rdf="http://www.w3.org/1999/02/22-rdf-syntax-ns#"
   xmlns:svg="http://www.w3.org/2000/svg"
   xmlns="http://www.w3.org/2000/svg"
   xmlns:sodipodi="http://sodipodi.sourceforge.net/DTD/sodipodi-0.dtd"
   xmlns:inkscape="http://www.inkscape.org/namespaces/inkscape"
   inkscape:version="1.0beta1 (d1b5375, 2019-10-12)"
   sodipodi:docname="infopop-symbolic.svg"
   viewBox="0 0 16 16"
   height="16"
   width="16"
   id="svg1"
   version="1.1">
  <style></style>
  <defs
     id="defs9" />
  <sodipodi:namedview
     inkscape:document-rotation="0"
     inkscape:current-layer="layer"
     inkscape:window-maximized="1"
     inkscape:window-height="1376"
     inkscape:window-width="2560"
     inkscape:window-y="0"
     inkscape:window-x="0"
     inkscape:cy="8.990675"
     inkscape:cx="7.594211"
     inkscape:zoom="27.16619"
     showgrid="true"
     id="namedview"
     guidetolerance="10"
     gridtolerance="10"
     objecttolerance="10">
    <inkscape:grid
       id="grid"
       type="xygrid" />
  </sodipodi:namedview>
  <metadata
     id="metadata1906">
    <rdf:RDF>
      <cc:Work
         rdf:about="">
        <dc:format>image/svg+xml</dc:format>
        <dc:type
           rdf:resource="http://purl.org/dc/dcmitype/StillImage" />
        <cc:license
           rdf:resource="http://creativecommons.org/publicdomain/zero/1.0/" />
        <dc:title>fe Editor new Icons proposal</dc:title>
        <dc:date>13 Nov 2018</dc:date>
        <dc:creator>
          <cc:Agent>
            <dc:title>Ramón Miranda</dc:title>
          </cc:Agent>
        </dc:creator>
        <dc:rights>
          <cc:Agent>
            <dc:title>see the license tab</dc:title>
          </cc:Agent>
        </dc:rights>
        <dc:subject>
          <rdf:Bag>
            <rdf:li>icon ui</rdf:li>
          </rdf:Bag>
        </dc:subject>
        <dc:description>This is a little contribution with Inkscape Project
Ramon Miranda  www.ramonmiranda.com (design and SVG file)
Jabiertxo (SVG stuff to integrate them in UI)</dc:description>
        <dc:publisher>
          <cc:Agent>
            <dc:title />
          </cc:Agent>
        </dc:publisher>
        <dc:identifier />
        <dc:source />
        <dc:relation />
        <dc:language>-</dc:language>
        <dc:coverage />
        <dc:contributor>
          <cc:Agent>
            <dc:title>Ramon Miranda
Jabier Arraiza</dc:title>
          </cc:Agent>
        </dc:contributor>
      </cc:Work>
      <cc:License
         rdf:about="http://creativecommons.org/publicdomain/zero/1.0/">
        <cc:permits
           rdf:resource="http://creativecommons.org/ns#Reproduction" />
        <cc:permits
           rdf:resource="http://creativecommons.org/ns#Distribution" />
        <cc:permits
           rdf:resource="http://creativecommons.org/ns#DerivativeWorks" />
      </cc:License>
    </rdf:RDF>
  </metadata>
  <g
     inkscape:label="info"
     id="layer"
     inkscape:groupmode="layer">
    <path
       inkscape:connector-curvature="0"
       style="opacity:0;fill:none"
       d="M 0,0 H 16 V 16 H 0 Z"
       id="rect22048" />
    <path
       inkscape:connector-curvature="0"
       d="m 3.0703125,0.94726562 c -0.654299,0 -1.1914062,0.55375128 -1.1914063,1.20703128 V 13.960938 c 0,0.65328 0.5354703,1.208984 1.1914063,1.208984 H 12.40625 c 0.65593,0 1.189453,-0.557315 1.189453,-1.208984 v -0.369141 l 1.619141,-1.392578 -0.361328,-0.359375 c -0.26391,-0.26391 -1.065053,-1.009973 -1.257813,-1.189453 V 2.1542969 c 10e-6,-0.65168 -0.535153,-1.20703127 -1.189453,-1.20703128 z M 8.9316406,3.9199219 c 0.248871,0.030845 0.4847613,0.1577626 0.6132813,0.3847656 0.234233,0.4141 0.1041877,0.9932481 -0.3320313,1.2695313 C 8.8728436,5.7899787 8.4124254,5.8075802 8.0976562,5.5820312 7.8254243,5.3883903 7.7305669,4.9874396 7.8261719,4.6503906 7.9371709,4.2614876 8.2838256,3.973925 8.6816406,3.921875 c 0.082398,-0.0108 0.16704,-0.012236 0.25,-0.00195 z M 7.9882812,6.1953125 c 0.33551,-0.030634 0.7488117,0.065572 0.8847657,0.4082031 0.179057,0.451289 -0.043846,0.9712086 -0.2050781,1.4160156 C 8.3795327,8.8070602 7.8190723,10.279299 7.7226562,10.574219 7.6116573,10.911269 7.7192199,11.05463 7.9355469,10.96875 8.3050049,10.81886 8.714805,10.17064 9,9.9648438 9.116671,9.8805818 9.2414519,10.073495 9.1855469,10.203125 8.9594969,10.728145 8.064261,11.512909 7.359375,11.818359 6.970472,11.986899 6.4594465,12.10764 6.0859375,11.9375 5.7707625,11.79571 5.7132525,11.444168 5.7578125,11.148438 5.8898775,10.280697 6.2831049,9.4864731 6.5917969,8.6738281 6.7702869,8.2039031 7.1156791,7.4080782 7.1425781,7.2695312 7.1920011,7.0159353 7.0103367,6.9519789 6.8085938,7.0605469 6.4002457,7.2809249 6.0113936,7.9192368 5.7910156,8.0585938 5.6670526,8.1371848 5.5377161,7.9996709 5.5644531,7.8886719 5.6292701,7.6164399 6.2457972,7.0278137 6.4726562,6.8398438 7.0754562,6.3407517 7.6107213,6.2294225 7.9882812,6.1953125 Z"
       style="opacity:1;fill:#000000"
       id="path4934" />
  </g>
</svg>
