<?xml version="1.0" encoding="UTF-8" standalone="no"?>
<!-- Created with Inkscape (http://www.inkscape.org/) -->

<svg width="16" height="16" viewBox="0 0 16 16" version="1.1" id="svg1" inkscape:version="1.5-dev (238eee28a8, 2025-02-23)" sodipodi:docname="keyboard-symbolic.svg" xmlns:inkscape="http://www.inkscape.org/namespaces/inkscape" xmlns:sodipodi="http://sodipodi.sourceforge.net/DTD/sodipodi-0.dtd" xmlns="http://www.w3.org/2000/svg" xmlns:svg="http://www.w3.org/2000/svg">
  <sodipodi:namedview id="namedview1" pagecolor="#ffffff" bordercolor="#000000" borderopacity="0.25" inkscape:showpageshadow="2" inkscape:pageopacity="0.0" inkscape:pagecheckerboard="0" inkscape:deskcolor="#d1d1d1" inkscape:document-units="px" inkscape:zoom="40.305087" showgrid="false" inkscape:cx="7.9890661" inkscape:cy="7.9890661" inkscape:current-layer="layer1" />
  <defs id="defs1" />
  <g inkscape:label="Layer 1" inkscape:groupmode="layer" id="layer1">
    <g id="g29" transform="translate(-144,20)">
      <path id="use26" style="fill:#000000;fill-rule:evenodd;stroke-width:0.999998" d="m 145.1505,-8.8495073 h 1.69901 c 0,0 0,0.3788803 0,0.8495074 0,0.4706271 0,0.8495075 0,0.8495075 h -1.69901 c 0,0 0,-0.3788804 0,-0.8495075 0,-0.4706271 0,-0.8495074 0,-0.8495074 z m 12,0 h 1.69901 c 0,0 0,0.3788803 0,0.8495074 0,0.4706271 0,0.8495075 0,0.8495075 h -1.69901 c 0,0 0,-0.3788804 0,-0.8495075 0,-0.4706271 0,-0.8495074 0,-0.8495074 z m 0,-2.9999997 h 1.69901 c 0,0 0,0.37888 0,0.849507 0,0.470627 0,0.849508 0,0.849508 h -1.69901 c 0,0 0,-0.378881 0,-0.849508 0,-0.470627 0,-0.849507 0,-0.849507 z m -3,0 h 1.69901 c 0,0 0,0.37888 0,0.849507 0,0.470627 0,0.849508 0,0.849508 h -1.69901 c 0,0 0,-0.378881 0,-0.849508 0,-0.470627 0,-0.849507 0,-0.849507 z m -3,0 h 1.69901 c 0,0 0,0.37888 0,0.849507 0,0.470627 0,0.849508 0,0.849508 h -1.69901 c 0,0 0,-0.378881 0,-0.849508 0,-0.470627 0,-0.849507 0,-0.849507 z m -3,0 h 1.69901 c 0,0 0,0.37888 0,0.849507 0,0.470627 0,0.849508 0,0.849508 h -1.69901 c 0,0 0,-0.378881 0,-0.849508 0,-0.470627 0,-0.849507 0,-0.849507 z m -3,0 h 1.69901 c 0,0 0,0.37888 0,0.849507 0,0.470627 0,0.849508 0,0.849508 h -1.69901 c 0,0 0,-0.378881 0,-0.849508 0,-0.470627 0,-0.849507 0,-0.849507 z m 12,-3 h 1.69901 c 0,0 0,0.37888 0,0.849507 0,0.470627 0,0.849508 0,0.849508 h -1.69901 c 0,0 0,-0.378881 0,-0.849508 0,-0.470627 0,-0.849507 0,-0.849507 z m -3,0 h 1.69901 c 0,0 0,0.37888 0,0.849507 0,0.470627 0,0.849508 0,0.849508 h -1.69901 c 0,0 0,-0.378881 0,-0.849508 0,-0.470627 0,-0.849507 0,-0.849507 z m -3,0 h 1.69901 c 0,0 0,0.37888 0,0.849507 0,0.470627 0,0.849508 0,0.849508 h -1.69901 c 0,0 0,-0.378881 0,-0.849508 0,-0.470627 0,-0.849507 0,-0.849507 z m -3,0 h 1.69901 c 0,0 0,0.37888 0,0.849507 0,0.470627 0,0.849508 0,0.849508 h -1.69901 c 0,0 0,-0.378881 0,-0.849508 0,-0.470627 0,-0.849507 0,-0.849507 z m 9e-4,6.0008399 h 7.689 c 0,0 0,0.3785055 0,0.8486671 0,0.4701616 0,0.8486671 0,0.8486671 h -7.689 c 0,0 0,-0.3785055 0,-0.8486671 0,-0.4701616 0,-0.8486671 0,-0.8486671 z m -3.0009,-6.0008389 h 1.69901 c 0,0 0,0.37888 0,0.849507 0,0.470627 0,0.849508 0,0.849508 h -1.69901 c 0,0 0,-0.378881 0,-0.849508 0,-0.470627 0,-0.849507 0,-0.849507 z M 145.3,-16 h 13.4 c 0.7202,0 1.3,0.5798 1.3,1.3 v 7.4 c 0,0.7202 -0.5798,1.3 -1.3,1.3 h -13.4 c -0.7202,0 -1.3,-0.5798 -1.3,-1.3 v -7.4 c 0,-0.7202 0.5798,-1.3 1.3,-1.3 z" />
      <path style="baseline-shift:baseline;display:inline;overflow:visible;opacity:1;vector-effect:none;fill:#000000;fill-rule:evenodd;stroke-linejoin:round;enable-background:accumulate;stop-opacity:1" d="m 158,-20 c 0,1.080273 -0.0519,1.31908 -0.15944,1.511719 -0.10764,0.192639 -0.19302,0.275929 -0.59766,0.285156 -1.28105,0.02922 -2.39542,-2.67e-4 -3.68626,0.0059 -0.59901,0.0028 -1.13845,0.218011 -1.47656,0.632812 -0.33812,0.414802 -0.46018,0.961368 -0.45508,1.56836 l 1,-0.0078 c -0.004,-0.464004 0.0963,-0.763142 0.23047,-0.927735 0.13416,-0.164592 0.31644,-0.263771 0.70703,-0.265625 1.27564,-0.0061 2.40668,0.02368 3.70189,-0.0059 0.65161,-0.01486 1.16696,-0.377823 1.42507,-0.839764 C 158.94757,-18.504829 159,-18.626634 159,-20 Z" id="path29" sodipodi:nodetypes="ccsssccsssscc" />
    </g>
  </g>
</svg>
