<?xml version="1.0" encoding="UTF-8" standalone="no"?>
<!-- Created with Inkscape (http://www.inkscape.org/) and export_objects.py -->

<svg
   version="1.1"
   id="svg1"
   width="16"
   height="16"
   viewBox="0 0 16 16"
   sodipodi:docname="node-segment-elipse-symbolic.svg"
   inkscape:version="1.4 (86a8ad7, 2024-10-11)"
   xmlns:inkscape="http://www.inkscape.org/namespaces/inkscape"
   xmlns:sodipodi="http://sodipodi.sourceforge.net/DTD/sodipodi-0.dtd"
   xmlns:xlink="http://www.w3.org/1999/xlink"
   xmlns="http://www.w3.org/2000/svg"
   xmlns:svg="http://www.w3.org/2000/svg">
  <defs
     id="defs1">
    <inkscape:path-effect
       effect="fillet_chamfer"
       id="path-effect3"
       is_visible="true"
       lpeversion="1"
       nodesatellites_param="F,0,0,1,0,0,0,1 @ F,0,0,1,0,0,0,1 @ F,0,0,1,0,0,0,1 @ F,0,0,1,0,0,0,1 @ F,0,0,1,0,0,0,1 @ F,0,0,1,0,0,0,1 @ F,0,0,1,0,0.83297817,0,1 @ F,0,0,1,0,0,0,1 @ F,0,0,1,0,0,0,1 @ F,0,0,1,0,0,0,1 @ F,0,0,1,0,0,0,1 @ F,0,0,1,0,0,0,1 @ F,0,0,1,0,0,0,1 @ F,0,0,1,0,1.1699194,0,1 @ F,0,0,1,0,0,0,1 @ F,0,0,1,0,0,0,1 @ F,0,0,1,0,0,0,1 @ F,0,0,1,0,0,0,1 @ F,0,0,1,0,0,0,1"
       radius="0"
       unit="px"
       method="arc"
       mode="F"
       chamfer_steps="1"
       flexible="false"
       use_knot_distance="true"
       apply_no_radius="true"
       apply_with_radius="true"
       only_selected="false"
       hide_knots="false" />
  </defs>
  <sodipodi:namedview
     objecttolerance="10"
     gridtolerance="10"
     guidetolerance="10"
     id="namedview"
     showgrid="true"
     inkscape:zoom="8"
     inkscape:cx="-33.375"
     inkscape:cy="6.125"
     inkscape:window-width="1854"
     inkscape:window-height="1177"
     inkscape:window-x="1912"
     inkscape:window-y="-8"
     inkscape:window-maximized="1"
     inkscape:current-layer="node-segment-line"
     pagecolor="#ffffff"
     bordercolor="#000000"
     borderopacity="0.25"
     inkscape:showpageshadow="2"
     inkscape:pageopacity="0.0"
     inkscape:pagecheckerboard="0"
     inkscape:deskcolor="#d1d1d1"
     showborder="false">
    <inkscape:grid
       type="xygrid"
       id="grid"
       originx="0"
       originy="0"
       spacingy="1"
       spacingx="1"
       units="px"
       visible="true" />
  </sodipodi:namedview>
  <g
     transform="translate(-709,-558.36218)"
     inkscape:label="00206"
     id="node-segment-line">
    <path
       inkscape:connector-curvature="0"
       id="rect16911"
       d="m 709,558.36218 h 16 v 16 h -16 z"
       style="opacity:0;fill:none" />
    <use
       xlink:href="#rect4374"
       height="1250"
       width="1250"
       id="use16913"
       y="0"
       x="0"
       transform="matrix(1,0,0,0.8000004,266,113.8722)" />
    <use
       xlink:href="#rect4374"
       height="1250"
       width="1250"
       id="use16915"
       y="0"
       x="0"
       transform="matrix(1,0,0,0.7999999,276,103.8725)" />
    <path
       d="m 717.06055,561.66296 c -2.47936,0 -4.5,2.02064 -4.5,4.5 0,2.10307 1.45375,3.8755 3.4082,4.36524 l -2,2.01562 0.70898,0.70508 2.56836,-2.58985 0.73587,-0.74238 a 0.20054868,0.20054868 58.380993 0 0 -0.20134,-0.32702 c -0.23223,0.0481 -0.47305,0.0733 -0.72007,0.0733 -0.0771,0 -0.15273,-0.003 -0.22852,-0.008 -1.83122,-0.11736 -3.27148,-1.63033 -3.27148,-3.49219 0,-1.93892 1.56108,-3.5 3.5,-3.5 1.85198,0 3.35879,1.42484 3.49023,3.24219 0.006,0.0853 0.01,0.17088 0.01,0.25781 0,0.12143 -0.006,0.24136 -0.018,0.35951 a 0.31421967,0.31421967 29.532555 0 0 0.51545,0.29201 l 0.49867,-0.50308 2.27539,-2.29492 -0.71094,-0.70313 -1.70507,1.71875 c -0.50334,-1.93487 -2.26633,-3.36914 -4.35547,-3.36914 z"
       style="opacity:1"
       id="path3"
       inkscape:path-effect="#path-effect3"
       inkscape:original-d="m 717.06055,561.66296 c -2.47936,0 -4.5,2.02064 -4.5,4.5 0,2.10307 1.45375,3.8755 3.4082,4.36524 l -2,2.01562 0.70898,0.70508 2.56836,-2.58985 1.32227,-1.33398 c -0.45624,0.2171 -0.96717,0.33789 -1.50781,0.33789 -0.0771,0 -0.15273,-0.003 -0.22852,-0.008 -1.83122,-0.11736 -3.27148,-1.63033 -3.27148,-3.49219 0,-1.93892 1.56108,-3.5 3.5,-3.5 1.85198,0 3.35879,1.42484 3.49023,3.24219 0.006,0.0853 0.01,0.17088 0.01,0.25781 0,0.53065 -0.11657,1.03263 -0.32618,1.48242 l 1.32227,-1.33398 2.27539,-2.29492 -0.71094,-0.70313 -1.70507,1.71875 c -0.50334,-1.93487 -2.26633,-3.36914 -4.35547,-3.36914 z"
       transform="translate(-0.79549513,-0.88388348)" />
  </g>
</svg>
