<?xml version="1.0" encoding="UTF-8" standalone="no"?>
<!-- Created with Inkscape (http://www.inkscape.org/) -->

<svg
   width="16"
   height="16"
   viewBox="0 0 16 16"
   version="1.1"
   id="svg1"
   inkscape:version="1.5-dev (33e1ddd6dc, 2025-06-03)"
   sodipodi:docname="text-line-wavy-symbolic.svg"
   xmlns:inkscape="http://www.inkscape.org/namespaces/inkscape"
   xmlns:sodipodi="http://sodipodi.sourceforge.net/DTD/sodipodi-0.dtd"
   xmlns="http://www.w3.org/2000/svg"
   xmlns:svg="http://www.w3.org/2000/svg">
  <sodipodi:namedview
     id="namedview1"
     pagecolor="#ffffff"
     bordercolor="#000000"
     borderopacity="0.125"
     inkscape:showpageshadow="2"
     inkscape:pageopacity="0.0"
     inkscape:pagecheckerboard="0"
     inkscape:deskcolor="#d1d1d1"
     inkscape:document-units="px"
     inkscape:zoom="1"
     showgrid="false"
     inkscape:current-layer="layer1">
    <inkscape:grid
       type="xygrid"
       id="grid1"
       units="px"
       originx="0"
       originy="0"
       spacingx="1"
       spacingy="1"
       empcolor="#0099e5"
       empopacity="0.30196078"
       color="#0099e5"
       opacity="0.14901961"
       empspacing="5"
       enabled="true"
       visible="false" />
  </sodipodi:namedview>
  <defs
     id="defs1" />
  <g
     inkscape:label="Layer 1"
     inkscape:groupmode="layer"
     id="layer1">
    <path
       id="path11"
       style="fill:#000000"
       d="M 2.7910156 6.4980469 C 2.5329711 6.4980469 2.2837946 6.5483462 2.0566406 6.6386719 C 1.8960905 6.7019869 1.7463982 6.7866568 1.6074219 6.8886719 L 1.6054688 6.890625 C 1.4598969 6.9977885 1.3278406 7.1249239 1.2148438 7.2695312 C 1.2139805 7.2706335 1.2137516 7.2723334 1.2128906 7.2734375 C 1.1571325 7.3451121 1.1047119 7.4201211 1.0585938 7.5 L 1.0605469 7.5 C 0.88974237 7.794149 0.7910156 8.1357319 0.79101562 8.4980469 L 1.7910156 8.4980469 C 1.7910156 8.3153273 1.8386135 8.1444077 1.921875 7.9980469 L 1.9238281 8 C 2.1028617 7.6899047 2.4329484 7.5 2.7910156 7.5 C 3.1490828 7.5 3.4765909 7.690788 3.6542969 8 C 4.0100346 8.6189913 4.6729891 9 5.3867188 9 C 6.1004485 9 6.7616475 8.6176158 7.1191406 8 C 7.2989172 7.6894126 7.6282609 7.5 7.9863281 7.5 C 8.3443953 7.5 8.6719014 7.6907866 8.8496094 8 C 9.2053491 8.61899 9.8683022 9 10.582031 9 C 11.295761 9 11.95696 8.6176159 12.314453 8 C 12.49423 7.6894127 12.823574 7.5 13.181641 7.5 C 13.226399 7.5 13.270863 7.5020141 13.314453 7.5078125 C 13.315086 7.5078963 13.315774 7.5077275 13.316406 7.5078125 C 13.402914 7.5194881 13.487269 7.543256 13.566406 7.5761719 C 13.568285 7.5769525 13.570393 7.5773333 13.572266 7.578125 C 13.610117 7.594145 13.646125 7.6122806 13.681641 7.6328125 C 13.68414 7.6342536 13.686968 7.6352567 13.689453 7.6367188 C 13.724075 7.6571377 13.757092 7.6805671 13.789062 7.7050781 C 13.823325 7.7313467 13.855952 7.7603103 13.886719 7.7910156 C 13.948253 7.8524263 14.002117 7.9224763 14.046875 8 C 14.129837 8.1461698 14.177734 8.3156809 14.177734 8.4980469 L 15.177734 8.4980469 C 15.177734 8.1360788 15.080658 7.7959098 14.910156 7.5019531 L 14.912109 7.5 C 14.701825 7.1357756 14.385356 6.8539727 14.015625 6.6835938 C 14.014857 6.6832352 14.014441 6.6819982 14.013672 6.6816406 C 13.858644 6.6104466 13.693722 6.5590041 13.523438 6.5292969 C 13.410744 6.5093305 13.295865 6.4980469 13.177734 6.4980469 L 13.177734 6.5 C 12.465499 6.5013926 11.806059 6.8835112 11.449219 7.5 C 11.269442 7.8105873 10.940098 8 10.582031 8 C 10.223965 8 9.8945048 7.8092132 9.7167969 7.5 C 9.3610573 6.8810102 8.7000577 6.5 7.9863281 6.5 C 7.2725985 6.5 6.6113993 6.8823842 6.2539062 7.5 C 6.0741296 7.8105874 5.744786 8 5.3867188 8 C 5.0286516 8 4.6991902 7.8092119 4.5214844 7.5 C 4.1657465 6.8810088 3.5047452 6.5 2.7910156 6.5 L 2.7910156 6.4980469 z " />
  </g>
</svg>
