<?xml version="1.0" encoding="UTF-8" standalone="no"?>
<!-- Created with Inkscape (http://www.inkscape.org/) -->

<svg
   width="16"
   height="16"
   viewBox="0 0 16 16"
   version="1.1"
   id="svg1"
   inkscape:version="1.4.3 (0d15f75, 2025-12-25)"
   sodipodi:docname="text-line-syntax-symbolic.svg"
   xmlns:inkscape="http://www.inkscape.org/namespaces/inkscape"
   xmlns:sodipodi="http://sodipodi.sourceforge.net/DTD/sodipodi-0.dtd"
   xmlns="http://www.w3.org/2000/svg"
   xmlns:svg="http://www.w3.org/2000/svg">
  <sodipodi:namedview
     id="namedview1"
     pagecolor="#ffffff"
     bordercolor="#000000"
     borderopacity="0.125"
     inkscape:showpageshadow="2"
     inkscape:pageopacity="0.0"
     inkscape:pagecheckerboard="0"
     inkscape:deskcolor="#d1d1d1"
     inkscape:document-units="px"
     inkscape:zoom="1"
     showgrid="false"
     inkscape:current-layer="layer1"
     inkscape:cx="7.5"
     inkscape:cy="4"
     inkscape:window-width="1018"
     inkscape:window-height="584"
     inkscape:window-x="375"
     inkscape:window-y="195"
     inkscape:window-maximized="0">
    <inkscape:grid
       type="xygrid"
       id="grid1"
       units="px"
       originx="0"
       originy="0"
       spacingx="1"
       spacingy="1"
       empcolor="#0099e5"
       empopacity="0.30196078"
       color="#0099e5"
       opacity="0.14901961"
       empspacing="5"
       enabled="true"
       visible="false" />
  </sodipodi:namedview>
  <defs
     id="defs1">
    <clipPath
       id="clip0_3684_42830">
      <rect
         width="16"
         height="16"
         fill="#ffffff"
         id="rect1"
         x="0"
         y="0" />
    </clipPath>
  </defs>
  <g
     inkscape:label="Layer 1"
     inkscape:groupmode="layer"
     id="layer1">
    <path
       id="path11"
       style="fill:#000000"
       d="m 3.3580825,12.872372 c -0.2265874,0 -0.445387,0.04628 -0.6448493,0.129386 -0.1409786,0.05825 -0.2724221,0.136159 -0.3944558,0.230021 l -0.00176,0.0018 c -0.1278257,0.0986 -0.2437831,0.215575 -0.3430049,0.348625 -7.578e-4,0.0011 -9.678e-4,0.0026 -0.00167,0.0035 -0.048971,0.06595 -0.094996,0.134961 -0.1354923,0.208456 h 0.00176 c -0.1500223,0.270604 -0.2367128,0.58489 -0.2367128,0.91825 h 0.8780925 c 0,-0.168118 0.041797,-0.325378 0.1149063,-0.460042 l 0.00176,0.0018 c 0.1572084,-0.285313 0.4470545,-0.460042 0.7614713,-0.460042 0.314416,0 0.6019983,0.175542 0.7580407,0.460042 0.3123708,0.569523 0.8945057,0.920083 1.5212268,0.920083 0.6267201,0 1.2073139,-0.351825 1.5212268,-0.920083 0.1578599,-0.285765 0.4470544,-0.460042 0.7614704,-0.460042 0.314416,0 0.6019965,0.175541 0.7580406,0.460042 0.3123727,0.569522 0.8945067,0.920083 1.5212272,0.920083 0.626721,0 1.207315,-0.351825 1.521227,-0.920083 0.15786,-0.285765 0.447055,-0.460042 0.761471,-0.460042 0.03931,0 0.07834,0.0018 0.116621,0.0072 5.56e-4,7.8e-5 0.0011,-7.7e-5 0.0018,0 0.07596,0.01074 0.150034,0.03261 0.219524,0.0629 0.0017,7.19e-4 0.0035,0.0012 0.0052,0.0018 0.03324,0.01474 0.06486,0.03143 0.09604,0.05032 0.0022,0.0012 0.0047,0.0022 0.0069,0.0035 0.0304,0.01878 0.0594,0.04035 0.08746,0.0629 0.03009,0.02417 0.05874,0.05081 0.08576,0.07908 0.05403,0.05651 0.10133,0.120955 0.140632,0.192284 0.07284,0.134487 0.114906,0.290451 0.114906,0.458244 h 0.878093 c 0,-0.333041 -0.08525,-0.646024 -0.234959,-0.916489 l 0.0017,-0.0018 c -0.184649,-0.335147 -0.462537,-0.59443 -0.787195,-0.751192 -6.75e-4,-3.31e-4 -10e-4,-0.0014 -0.0018,-0.0017 -0.136129,-0.0655 -0.280945,-0.112837 -0.430471,-0.140169 -0.09896,-0.01837 -0.19983,-0.02875 -0.30356,-0.02875 v 0.0018 c -0.625408,0.0012 -1.204458,0.352862 -1.517796,0.920083 -0.157819,0.285766 -0.447014,0.460042 -0.76143,0.460042 -0.3144146,0 -0.6037112,-0.175541 -0.7597554,-0.460042 -0.3123728,-0.569522 -0.892791,-0.920083 -1.5195121,-0.920083 -0.6267209,0 -1.2073149,0.351825 -1.5212268,0.920083 -0.1578599,0.285766 -0.4470544,0.460042 -0.7614704,0.460042 -0.314416,0 -0.6037141,-0.175542 -0.7597564,-0.460042 C 4.565391,13.224821 3.9849709,12.874261 3.3582508,12.874261 Z" />
    <path
       id="text3"
       style="fill:#000000"
       d="M 4.246875,3.023438 1.7,12.003906 H 3.026172 L 3.629687,9.689453 h 2.728516 l 0.601562,2.314453 H 8.285937 L 5.741015,3.023438 H 5.379687 5.00664 Z m 4.724609,0 v 8.980468 h 1.240235 v -0.964844 h 0.02344 c 0.09959,0.224069 0.227331,0.416298 0.380859,0.578126 0.157678,0.157677 0.339405,0.28005 0.546875,0.367187 0.21162,0.08299 0.444152,0.125 0.697266,0.125 0.468884,0 0.867509,-0.132875 1.195313,-0.398437 0.331952,-0.269713 0.58549,-0.654171 0.759765,-1.15625 0.178425,-0.502079 0.267578,-1.10881 0.267578,-1.81836 v -0.01172 c 0,-0.7054 -0.08915,-1.310421 -0.267578,-1.8125 C 13.640962,6.410029 13.387424,6.02728 13.055472,5.761718 12.727668,5.496155 12.332462,5.36328 11.871878,5.36328 c -0.261414,0 -0.499075,0.04543 -0.714844,0.136719 -0.21162,0.09129 -0.397009,0.217079 -0.554688,0.378906 -0.153527,0.161827 -0.2759,0.348927 -0.367187,0.560547 h -0.02344 V 3.023437 Z M 4.98125,4.498047 H 5.00664 L 6.080859,8.625 H 3.907031 Z m 6.53125,1.953125 c 0.273861,0 0.508103,0.08915 0.703125,0.267578 0.195022,0.174275 0.34353,0.433186 0.447265,0.773437 0.103736,0.336103 0.15625,0.746941 0.15625,1.232422 v 0.01172 c 0,0.489631 -0.05251,0.903889 -0.15625,1.244141 -0.103735,0.340252 -0.252243,0.600872 -0.447265,0.779297 -0.195022,0.174276 -0.427554,0.261718 -0.697266,0.261718 -0.269712,0 -0.502243,-0.09111 -0.697266,-0.269531 C 10.626071,10.573529 10.473901,10.316572 10.366015,9.98047 10.258131,9.640218 10.203906,9.22767 10.203906,8.742188 v -0.0059 c 0,-0.485481 0.05423,-0.898029 0.162109,-1.238281 C 10.473901,7.157755 10.626071,6.897135 10.821093,6.71871 11.016116,6.540285 11.246937,6.451132 11.5125,6.451132 Z" />
  </g>
</svg>
