<?xml version="1.0" encoding="UTF-8" standalone="no"?>
<svg
   width="16"
   height="16"
   viewBox="0 0 16 16"
   fill="none"
   version="1.1"
   id="svg1"
   sodipodi:docname="text-underline-symbolic.svg"
   inkscape:version="1.4.3 (0d15f75, 2025-12-25)"
   xmlns:inkscape="http://www.inkscape.org/namespaces/inkscape"
   xmlns:sodipodi="http://sodipodi.sourceforge.net/DTD/sodipodi-0.dtd"
   xmlns="http://www.w3.org/2000/svg"
   xmlns:svg="http://www.w3.org/2000/svg">
  <sodipodi:namedview
     id="namedview1"
     pagecolor="#ffffff"
     bordercolor="#000000"
     borderopacity="0.25"
     inkscape:showpageshadow="2"
     inkscape:pageopacity="0.0"
     inkscape:pagecheckerboard="0"
     inkscape:deskcolor="#d1d1d1"
     inkscape:zoom="46.8125"
     inkscape:cx="7.9893191"
     inkscape:cy="8"
     inkscape:window-width="1274"
     inkscape:window-height="827"
     inkscape:window-x="0"
     inkscape:window-y="38"
     inkscape:window-maximized="0"
     inkscape:current-layer="svg1"
     showgrid="true">
    <inkscape:grid
       id="grid1"
       units="px"
       originx="0"
       originy="0"
       spacingx="1"
       spacingy="1"
       empcolor="#0099e5"
       empopacity="0.30196078"
       color="#0099e5"
       opacity="0.14901961"
       empspacing="5"
       enabled="true"
       visible="true" />
  </sodipodi:namedview>
  <path
     id="Union"
     d="M 4.2460938 3.0234375 L 1.6992188 12.003906 L 3.0253906 12.003906 L 3.6289062 9.6894531 L 6.3574219 9.6894531 L 6.9589844 12.003906 L 8.2851562 12.003906 L 5.7402344 3.0234375 L 5.3789062 3.0234375 L 5.0058594 3.0234375 L 4.2460938 3.0234375 z M 8.9707031 3.0234375 L 8.9707031 12.003906 L 10.210938 12.003906 L 10.210938 11.039062 L 10.234375 11.039062 C 10.333965 11.263132 10.461706 11.455359 10.615234 11.617188 C 10.772912 11.774864 10.954639 11.897238 11.162109 11.984375 C 11.373729 12.067365 11.606261 12.109375 11.859375 12.109375 C 12.328259 12.109375 12.726883 11.976499 13.054688 11.710938 C 13.386639 11.441225 13.640178 11.056767 13.814453 10.554688 C 13.992878 10.052608 14.082031 9.4458781 14.082031 8.7363281 L 14.082031 8.7246094 C 14.082031 8.0192094 13.992881 7.4141884 13.814453 6.9121094 C 13.640178 6.4100304 13.38664 6.0272808 13.054688 5.7617188 C 12.726883 5.4961557 12.331678 5.3632812 11.871094 5.3632812 C 11.60968 5.3632812 11.372019 5.408711 11.15625 5.5 C 10.94463 5.59129 10.759241 5.7170793 10.601562 5.8789062 C 10.448035 6.0407332 10.325662 6.2278331 10.234375 6.4394531 L 10.210938 6.4394531 L 10.210938 3.0234375 L 8.9707031 3.0234375 z M 4.9804688 4.4980469 L 5.0058594 4.4980469 L 6.0800781 8.625 L 3.90625 8.625 L 4.9804688 4.4980469 z M 11.511719 6.4511719 C 11.78558 6.4511719 12.019822 6.540322 12.214844 6.71875 C 12.409866 6.893025 12.558374 7.1519365 12.662109 7.4921875 C 12.765845 7.8282905 12.818359 8.2391284 12.818359 8.7246094 L 12.818359 8.7363281 C 12.818359 9.2259591 12.765849 9.6402168 12.662109 9.9804688 C 12.558374 10.320721 12.409866 10.581341 12.214844 10.759766 C 12.019822 10.934042 11.78729 11.021484 11.517578 11.021484 C 11.247866 11.021484 11.015336 10.930374 10.820312 10.751953 C 10.625291 10.573528 10.47312 10.316571 10.365234 9.9804688 C 10.25735 9.6402168 10.203125 9.2276695 10.203125 8.7421875 L 10.203125 8.7363281 C 10.203125 8.2508471 10.257355 7.8382989 10.365234 7.4980469 C 10.47312 7.1577949 10.62529 6.897175 10.820312 6.71875 C 11.015336 6.540325 11.246156 6.4511719 11.511719 6.4511719 z M 2 13 L 2 14 L 14 14 L 14 13 L 2 13 z "
     style="fill:#000000" />
  <defs
     id="defs1" />
</svg>
