<?xml version="1.0" encoding="UTF-8" standalone="no"?>
<!-- Created with Inkscape (http://www.inkscape.org/) -->

<svg width="16" height="16" viewBox="0 0 16 16" version="1.1" id="svg1" inkscape:version="1.5-dev (238eee28a8, 2025-02-23)" sodipodi:docname="ui-symbolic.svg" xmlns:inkscape="http://www.inkscape.org/namespaces/inkscape" xmlns:sodipodi="http://sodipodi.sourceforge.net/DTD/sodipodi-0.dtd" xmlns="http://www.w3.org/2000/svg" xmlns:svg="http://www.w3.org/2000/svg">
  <sodipodi:namedview id="namedview1" pagecolor="#ffffff" bordercolor="#000000" borderopacity="0.25" inkscape:showpageshadow="2" inkscape:pageopacity="0.0" inkscape:pagecheckerboard="0" inkscape:deskcolor="#d1d1d1" inkscape:document-units="px" inkscape:zoom="39.818951" showgrid="false" inkscape:cx="7.998704" inkscape:cy="8.0112608" inkscape:current-layer="layer1" />
  <defs id="defs1" />
  <g inkscape:label="Layer 1" inkscape:groupmode="layer" id="layer1">
    <path id="rect2" style="baseline-shift:baseline;display:inline;overflow:visible;vector-effect:none;fill:#000000;fill-rule:evenodd;enable-background:accumulate;stop-opacity:1;opacity:1" d="M 2.5 2 C 1.6776494 2 1 2.6776494 1 3.5 L 1 13.5 C 1 14.322351 1.6776494 15 2.5 15 L 13.5 15 C 14.322351 15 15 14.322351 15 13.5 L 15 3.5 C 15 2.6776494 14.322351 2 13.5 2 L 2.5 2 z M 2.5 3 L 13.5 3 C 13.785649 3 14 3.2143506 14 3.5 L 14 6 L 2 6 L 2 3.5 C 2 3.2143506 2.2143506 3 2.5 3 z M 3.5 3.8105469 A 0.68891007 0.68891007 0 0 0 2.8105469 4.5 A 0.68891007 0.68891007 0 0 0 3.5 5.1894531 A 0.68891007 0.68891007 0 0 0 4.1894531 4.5 A 0.68891007 0.68891007 0 0 0 3.5 3.8105469 z M 5.5 3.8105469 A 0.68891007 0.68891007 0 0 0 4.8105469 4.5 A 0.68891007 0.68891007 0 0 0 5.5 5.1894531 A 0.68891007 0.68891007 0 0 0 6.1894531 4.5 A 0.68891007 0.68891007 0 0 0 5.5 3.8105469 z M 7.5 3.8105469 A 0.68891007 0.68891007 0 0 0 6.8105469 4.5 A 0.68891007 0.68891007 0 0 0 7.5 5.1894531 A 0.68891007 0.68891007 0 0 0 8.1894531 4.5 A 0.68891007 0.68891007 0 0 0 7.5 3.8105469 z M 2 7 L 14 7 L 14 13.5 C 14 13.785649 13.785649 14 13.5 14 L 2.5 14 C 2.2143506 14 2 13.785649 2 13.5 L 2 7 z M 3 8 L 3 9 L 9 9 L 9 8 L 3 8 z M 3 10 L 3 11 L 9 11 L 9 10 L 3 10 z M 3 12 L 3 13 L 9 13 L 9 12 L 3 12 z " />
    <rect style="opacity:0.6;fill:#000000;fill-rule:evenodd" id="rect35" width="3" height="5" x="9.9999981" y="7.999999" />
  </g>
</svg>
