<svg width="16" height="16" viewBox="0 0 16 16" fill="none" xmlns="http://www.w3.org/2000/svg">
<path d="M14.5106 11.4122C8.28187 11.2299 4.59785 7.85986 4.58594 1.48828" stroke="url(#paint0_linear_69_44)" stroke-width="2.97729" stroke-linecap="round"/>
<path d="M14.5106 11.4122C8.28187 11.2299 4.59785 7.85986 4.58594 1.48828" stroke="#ADADAD" stroke-width="0.793943" stroke-linecap="round"/>
<path fill-rule="evenodd" clip-rule="evenodd" d="M2.10938 4.96289L11.0416 13.8945Z" fill="#3465A4" fill-opacity="0.75"/>
<path d="M2.10938 4.96289L11.0416 13.8945" stroke="#3465A4" stroke-width="1.48864"/>
<path d="M1.05672 6.01521C1.6381 6.59654 2.58069 6.59655 3.16206 6.01522C3.74343 5.43389 3.74342 4.49136 3.16205 3.91002C2.58067 3.32869 1.63808 3.32868 1.05671 3.91001C0.475344 4.49134 0.475349 5.43387 1.05672 6.01521Z" fill="white" stroke="#3465A4" stroke-width="0.992428" stroke-linecap="round"/>
<path d="M9.9864 14.9468C10.5678 15.5282 11.5104 15.5282 12.0917 14.9468C12.6731 14.3655 12.6731 13.423 12.0917 12.8417C11.5104 12.2603 10.5678 12.2603 9.9864 12.8417C9.40503 13.423 9.40503 14.3655 9.9864 14.9468Z" fill="white" stroke="#3465A4" stroke-width="0.992429" stroke-linecap="round"/>
<path d="M7.1154 6.59978L9.13295 8.61726L8.39448 11.3732L5.63845 12.1116L3.6209 10.0942L4.35937 7.33823L7.1154 6.59978Z" fill="url(#paint1_linear_69_44)" stroke="#888A85" stroke-width="1.14128" stroke-linejoin="round"/>
<path d="M6.78047 7.87408L7.86653 8.96011L7.46901 10.4437L5.98541 10.8412L4.89935 9.75514L5.29688 8.27159L6.78047 7.87408Z" stroke="url(#paint2_linear_69_44)" stroke-width="1.14128"/>
<defs>
<linearGradient id="paint0_linear_69_44" x1="9.37489" y1="7.48079" x2="10.7561" y2="6.11746" gradientUnits="userSpaceOnUse">
<stop stop-color="#555753"/>
<stop offset="1" stop-color="#555753" stop-opacity="0"/>
</linearGradient>
<linearGradient id="paint1_linear_69_44" x1="5.52597" y1="7.74566" x2="7.8806" y2="11.8241" gradientUnits="userSpaceOnUse">
<stop stop-color="#D3D7CF"/>
<stop offset="1" stop-color="#FAFBFA"/>
</linearGradient>
<linearGradient id="paint2_linear_69_44" x1="6.45204" y1="7.46787" x2="5.28889" y2="11.8089" gradientUnits="userSpaceOnUse">
<stop stop-color="white"/>
<stop offset="1" stop-color="white" stop-opacity="0"/>
</linearGradient>
</defs>
</svg>
